<svg id="visual" viewBox="0 0 2500 600" width="2500" height="600" xmlns="http://www.w3.org/2000/svg" xmlns:xlink="http://www.w3.org/1999/xlink" version="1.1"><rect x="0" y="0" width="2500" height="600" fill="#222222"></rect><path d="M0 310L41.7 301C83.3 292 166.7 274 250 281.7C333.3 289.3 416.7 322.7 500 314C583.3 305.3 666.7 254.7 750 255C833.3 255.3 916.7 306.7 1000 328.8C1083.3 351 1166.7 344 1250 328.2C1333.3 312.3 1416.7 287.7 1500 279.2C1583.3 270.7 1666.7 278.3 1750 281.8C1833.3 285.3 1916.7 284.7 2000 289C2083.3 293.3 2166.7 302.7 2250 294.3C2333.3 286 2416.7 260 2458.3 247L2500 234L2500 601L2458.3 601C2416.7 601 2333.3 601 2250 601C2166.7 601 2083.3 601 2000 601C1916.7 601 1833.3 601 1750 601C1666.7 601 1583.3 601 1500 601C1416.7 601 1333.3 601 1250 601C1166.7 601 1083.3 601 1000 601C916.7 601 833.3 601 750 601C666.7 601 583.3 601 500 601C416.7 601 333.3 601 250 601C166.7 601 83.3 601 41.7 601L0 601Z" fill="#2aa4fe"></path><path d="M0 271L41.7 287C83.3 303 166.7 335 250 338.5C333.3 342 416.7 317 500 306.8C583.3 296.7 666.7 301.3 750 308C833.3 314.7 916.7 323.3 1000 336.8C1083.3 350.3 1166.7 368.7 1250 372.8C1333.3 377 1416.7 367 1500 349.2C1583.3 331.3 1666.7 305.7 1750 290C1833.3 274.3 1916.7 268.7 2000 268C2083.3 267.3 2166.7 271.7 2250 293.2C2333.3 314.7 2416.7 353.3 2458.3 372.7L2500 392L2500 601L2458.3 601C2416.7 601 2333.3 601 2250 601C2166.7 601 2083.3 601 2000 601C1916.7 601 1833.3 601 1750 601C1666.7 601 1583.3 601 1500 601C1416.7 601 1333.3 601 1250 601C1166.7 601 1083.3 601 1000 601C916.7 601 833.3 601 750 601C666.7 601 583.3 601 500 601C416.7 601 333.3 601 250 601C166.7 601 83.3 601 41.7 601L0 601Z" fill="#398ed7"></path><path d="M0 371L41.7 368.5C83.3 366 166.7 361 250 367.3C333.3 373.7 416.7 391.3 500 396.3C583.3 401.3 666.7 393.7 750 388.3C833.3 383 916.7 380 1000 369.8C1083.3 359.7 1166.7 342.3 1250 341.2C1333.3 340 1416.7 355 1500 352C1583.3 349 1666.7 328 1750 330.2C1833.3 332.3 1916.7 357.7 2000 376.5C2083.3 395.3 2166.7 407.7 2250 406.8C2333.3 406 2416.7 392 2458.3 385L2500 378L2500 601L2458.3 601C2416.7 601 2333.3 601 2250 601C2166.7 601 2083.3 601 2000 601C1916.7 601 1833.3 601 1750 601C1666.7 601 1583.3 601 1500 601C1416.7 601 1333.3 601 1250 601C1166.7 601 1083.3 601 1000 601C916.7 601 833.3 601 750 601C666.7 601 583.3 601 500 601C416.7 601 333.3 601 250 601C166.7 601 83.3 601 41.7 601L0 601Z" fill="#3e79b2"></path><path d="M0 467L41.7 460C83.3 453 166.7 439 250 419.8C333.3 400.7 416.7 376.3 500 383.2C583.3 390 666.7 428 750 437.3C833.3 446.7 916.7 427.3 1000 413.7C1083.3 400 1166.7 392 1250 400.7C1333.3 409.3 1416.7 434.7 1500 443C1583.3 451.3 1666.7 442.7 1750 436.8C1833.3 431 1916.7 428 2000 418.3C2083.3 408.7 2166.7 392.3 2250 400.2C2333.3 408 2416.7 440 2458.3 456L2500 472L2500 601L2458.3 601C2416.7 601 2333.3 601 2250 601C2166.7 601 2083.3 601 2000 601C1916.7 601 1833.3 601 1750 601C1666.7 601 1583.3 601 1500 601C1416.7 601 1333.3 601 1250 601C1166.7 601 1083.3 601 1000 601C916.7 601 833.3 601 750 601C666.7 601 583.3 601 500 601C416.7 601 333.3 601 250 601C166.7 601 83.3 601 41.7 601L0 601Z" fill="#3f658e"></path><path d="M0 487L41.7 473.3C83.3 459.7 166.7 432.3 250 428.5C333.3 424.7 416.7 444.3 500 461.2C583.3 478 666.7 492 750 485C833.3 478 916.7 450 1000 450.2C1083.3 450.3 1166.7 478.7 1250 479.3C1333.3 480 1416.7 453 1500 436.7C1583.3 420.3 1666.7 414.7 1750 425.8C1833.3 437 1916.7 465 2000 480C2083.3 495 2166.7 497 2250 488.2C2333.3 479.3 2416.7 459.7 2458.3 449.8L2500 440L2500 601L2458.3 601C2416.7 601 2333.3 601 2250 601C2166.7 601 2083.3 601 2000 601C1916.7 601 1833.3 601 1750 601C1666.7 601 1583.3 601 1500 601C1416.7 601 1333.3 601 1250 601C1166.7 601 1083.3 601 1000 601C916.7 601 833.3 601 750 601C666.7 601 583.3 601 500 601C416.7 601 333.3 601 250 601C166.7 601 83.3 601 41.7 601L0 601Z" fill="#3c516b"></path><path d="M0 539L41.7 528.5C83.3 518 166.7 497 250 483.3C333.3 469.7 416.7 463.3 500 470.2C583.3 477 666.7 497 750 511.3C833.3 525.7 916.7 534.3 1000 524.5C1083.3 514.7 1166.7 486.3 1250 486.2C1333.3 486 1416.7 514 1500 525.2C1583.3 536.3 1666.7 530.7 1750 528.3C1833.3 526 1916.7 527 2000 530.3C2083.3 533.7 2166.7 539.3 2250 528.7C2333.3 518 2416.7 491 2458.3 477.5L2500 464L2500 601L2458.3 601C2416.7 601 2333.3 601 2250 601C2166.7 601 2083.3 601 2000 601C1916.7 601 1833.3 601 1750 601C1666.7 601 1583.3 601 1500 601C1416.7 601 1333.3 601 1250 601C1166.7 601 1083.3 601 1000 601C916.7 601 833.3 601 750 601C666.7 601 583.3 601 500 601C416.7 601 333.3 601 250 601C166.7 601 83.3 601 41.7 601L0 601Z" fill="#353e4b"></path><path d="M0 584L41.7 572.2C83.3 560.3 166.7 536.7 250 526.5C333.3 516.3 416.7 519.7 500 527.5C583.3 535.3 666.7 547.7 750 545.8C833.3 544 916.7 528 1000 529.3C1083.3 530.7 1166.7 549.3 1250 559.5C1333.3 569.7 1416.7 571.3 1500 561.3C1583.3 551.3 1666.7 529.7 1750 521.5C1833.3 513.3 1916.7 518.7 2000 529.3C2083.3 540 2166.7 556 2250 561.2C2333.3 566.3 2416.7 560.7 2458.3 557.8L2500 555L2500 601L2458.3 601C2416.7 601 2333.3 601 2250 601C2166.7 601 2083.3 601 2000 601C1916.7 601 1833.3 601 1750 601C1666.7 601 1583.3 601 1500 601C1416.7 601 1333.3 601 1250 601C1166.7 601 1083.3 601 1000 601C916.7 601 833.3 601 750 601C666.7 601 583.3 601 500 601C416.7 601 333.3 601 250 601C166.7 601 83.3 601 41.7 601L0 601Z" fill="#2c2c2c"></path></svg>