<?xml version="1.0" encoding="utf-8"?>
<!-- Generator: Adobe Illustrator 24.0.1, SVG Export Plug-In . SVG Version: 6.00 Build 0)  -->
<svg version="1.1" id="visual" xmlns="http://www.w3.org/2000/svg" xmlns:xlink="http://www.w3.org/1999/xlink" x="0px" y="0px"
	 viewBox="0 0 2500 600" style="enable-background:new 0 0 2500 600;" xml:space="preserve">
<style type="text/css">
	.st0{fill:#FFFFFF;}
	.st1{fill:#2AA4FE;}
	.st2{fill:#398ED7;}
	.st3{fill:#3E79B2;}
	.st4{fill:#3F658E;}
	.st5{fill:#3C516B;}
	.st6{fill:#353E4B;}
	.st7{fill:#2C2C2C;}
</style>
<rect y="0" class="st0" width="2500" height="600"/>
<path class="st1" d="M0,277l41.7,17.2c41.6,17.1,125,51.5,208.3,56.6c83.3,5.2,166.7-18.8,250-41c83.3-22.1,166.7-42.5,250-45.5
	s166.7,11.4,250,2c83.3-9.3,166.7-42.3,250-31.6c83.3,10.6,166.7,65,250,74.5s166.7-25.9,250-53.5c83.3-27.7,166.7-47.7,250-55
	c83.3-7.4,166.7-2,250,8.6c83.3,10.7,166.7,26.7,208.3,34.7l41.7,8V0h-41.7c-41.6,0-125,0-208.3,0s-166.7,0-250,0s-166.7,0-250,0
	s-166.7,0-250,0s-166.7,0-250,0s-166.7,0-250,0S833.3,0,750,0S583.3,0,500,0S333.3,0,250,0S83.3,0,41.7,0H0V277z"/>
<path class="st2" d="M0,162l41.7,4.7c41.6,4.6,125,14,208.3,14.3s166.7-8.3,250,3.5s166.7,44.2,250,50.5s166.7-13.3,250-28.5
	s166.7-25.8,250-5s166.7,73.2,250,87.5s166.7-9.3,250-23c83.3-13.7,166.7-17.3,250-16.8s166.7,5.1,250-7.2s166.7-41.7,208.3-56.3
	L2500,171V0h-41.7c-41.6,0-125,0-208.3,0s-166.7,0-250,0s-166.7,0-250,0s-166.7,0-250,0s-166.7,0-250,0s-166.7,0-250,0
	S833.3,0,750,0S583.3,0,500,0S333.3,0,250,0S83.3,0,41.7,0H0V162z"/>
<path class="st3" d="M0,185l41.7,3.2c41.6,3.1,125,9.5,208.3,23.3s166.7,35.2,250,22.8c83.3-12.3,166.7-58.3,250-78.8
	s166.7-15.5,250-0.3c83.3,15.1,166.7,40.5,250,48.8s166.7-0.3,250-7s166.7-11.3,250-0.8s166.7,36.1,250,41.3s166.7-10.2,250-9.3
	c83.3,0.8,166.7,17.8,208.3,26.3l41.7,8.5V0h-41.7c-41.6,0-125,0-208.3,0s-166.7,0-250,0s-166.7,0-250,0s-166.7,0-250,0
	s-166.7,0-250,0s-166.7,0-250,0S833.3,0,750,0S583.3,0,500,0S333.3,0,250,0S83.3,0,41.7,0H0V185z"/>
<path class="st4" d="M0,228l41.7-19.8c41.6-19.9,125-59.5,208.3-81.2s166.7-25.3,250-8.7c83.3,16.7,166.7,53.7,250,64.4
	c83.3,10.6,166.7-5,250-15.4c83.3-10.3,166.7-15.3,250-3.3s166.7,41,250,36.3c83.3-4.6,166.7-43,250-44.8s166.7,32.8,250,37.5
	s166.7-20.7,250-41.3c83.3-20.7,166.7-36.7,208.3-44.7l41.7-8V0h-41.7c-41.6,0-125,0-208.3,0s-166.7,0-250,0s-166.7,0-250,0
	s-166.7,0-250,0s-166.7,0-250,0s-166.7,0-250,0S833.3,0,750,0S583.3,0,500,0S333.3,0,250,0S83.3,0,41.7,0H0V228z"/>
<path class="st5" d="M0,68l41.7,18.5C83.3,105,166.7,142,250,145.8c83.3,3.9,166.7-25.5,250-29.6c83.3-4.2,166.7,16.8,250,31.5
	c83.3,14.6,166.7,23,250,10s166.7-47.4,250-60.9s166.7-6.1,250,4.5c83.3,10.7,166.7,24.7,250,22.4c83.3-2.4,166.7-21,250-32.2
	s166.7-14.8,250-17.5s166.7-4.3,208.3-5.2L2500,68V0h-41.7c-41.6,0-125,0-208.3,0s-166.7,0-250,0s-166.7,0-250,0s-166.7,0-250,0
	s-166.7,0-250,0s-166.7,0-250,0S833.3,0,750,0S583.3,0,500,0S333.3,0,250,0S83.3,0,41.7,0H0V68z"/>
<path class="st6" d="M0,119l41.7,3.8c41.6,3.9,125,11.5,208.3,12.4c83.3,0.8,166.7-5.2,250-10.9c83.3-5.6,166.7-11,250-10
	s166.7,8.4,250,4.7s166.7-18.3,250-29.5s166.7-18.8,250-13.5s166.7,23.7,250,36.3c83.3,12.7,166.7,19.7,250,10.4
	c83.3-9.4,166.7-35,250-49.7s166.7-18.3,208.3-20.2L2500,51V0h-41.7c-41.6,0-125,0-208.3,0s-166.7,0-250,0s-166.7,0-250,0
	s-166.7,0-250,0s-166.7,0-250,0s-166.7,0-250,0S833.3,0,750,0S583.3,0,500,0S333.3,0,250,0S83.3,0,41.7,0H0V119z"/>
<path class="st7" d="M0,58l41.7,5.5C83.3,69,166.7,80,250,83.7c83.3,3.6,166.7,0,250-8.9C583.3,66,666.7,52,750,41.7
	c83.3-10.4,166.7-17,250-8.4c83.3,8.7,166.7,32.7,250,42.4c83.3,9.6,166.7,5,250,0.5s166.7-8.9,250-13.9c83.3-5,166.7-10.6,250-17.3
	s166.7-14.3,250-15.2c83.3-0.8,166.7,5.2,208.3,8.2l41.7,3V0h-41.7c-41.6,0-125,0-208.3,0s-166.7,0-250,0s-166.7,0-250,0
	s-166.7,0-250,0s-166.7,0-250,0s-166.7,0-250,0S833.3,0,750,0S583.3,0,500,0S333.3,0,250,0S83.3,0,41.7,0H0V58z"/>
</svg>
