<svg id="visual" viewBox="0 0 2500 600" width="2500" height="600" xmlns="http://www.w3.org/2000/svg" xmlns:xlink="http://www.w3.org/1999/xlink" version="1.1"><rect x="0" y="0" width="2500" height="600" fill="#222222"></rect><path d="M0 277L41.7 294.2C83.3 311.3 166.7 345.7 250 350.8C333.3 356 416.7 332 500 309.8C583.3 287.7 666.7 267.3 750 264.3C833.3 261.3 916.7 275.7 1000 266.3C1083.3 257 1166.7 224 1250 234.7C1333.3 245.3 1416.7 299.7 1500 309.2C1583.3 318.7 1666.7 283.3 1750 255.7C1833.3 228 1916.7 208 2000 200.7C2083.3 193.3 2166.7 198.7 2250 209.3C2333.3 220 2416.7 236 2458.3 244L2500 252L2500 0L2458.3 0C2416.7 0 2333.3 0 2250 0C2166.7 0 2083.3 0 2000 0C1916.7 0 1833.3 0 1750 0C1666.7 0 1583.3 0 1500 0C1416.7 0 1333.3 0 1250 0C1166.7 0 1083.3 0 1000 0C916.7 0 833.3 0 750 0C666.7 0 583.3 0 500 0C416.7 0 333.3 0 250 0C166.7 0 83.3 0 41.7 0L0 0Z" fill="#2aa4fe"></path><path d="M0 162L41.7 166.7C83.3 171.3 166.7 180.7 250 181C333.3 181.3 416.7 172.7 500 184.5C583.3 196.3 666.7 228.7 750 235C833.3 241.3 916.7 221.7 1000 206.5C1083.3 191.3 1166.7 180.7 1250 201.5C1333.3 222.3 1416.7 274.7 1500 289C1583.3 303.3 1666.7 279.7 1750 266C1833.3 252.3 1916.7 248.7 2000 249.2C2083.3 249.7 2166.7 254.3 2250 242C2333.3 229.7 2416.7 200.3 2458.3 185.7L2500 171L2500 0L2458.3 0C2416.7 0 2333.3 0 2250 0C2166.7 0 2083.3 0 2000 0C1916.7 0 1833.3 0 1750 0C1666.7 0 1583.3 0 1500 0C1416.7 0 1333.3 0 1250 0C1166.7 0 1083.3 0 1000 0C916.7 0 833.3 0 750 0C666.7 0 583.3 0 500 0C416.7 0 333.3 0 250 0C166.7 0 83.3 0 41.7 0L0 0Z" fill="#398ed7"></path><path d="M0 185L41.7 188.2C83.3 191.3 166.7 197.7 250 211.5C333.3 225.3 416.7 246.7 500 234.3C583.3 222 666.7 176 750 155.5C833.3 135 916.7 140 1000 155.2C1083.3 170.3 1166.7 195.7 1250 204C1333.3 212.3 1416.7 203.7 1500 197C1583.3 190.3 1666.7 185.7 1750 196.2C1833.3 206.7 1916.7 232.3 2000 237.5C2083.3 242.7 2166.7 227.3 2250 228.2C2333.3 229 2416.7 246 2458.3 254.5L2500 263L2500 0L2458.3 0C2416.7 0 2333.3 0 2250 0C2166.7 0 2083.3 0 2000 0C1916.7 0 1833.3 0 1750 0C1666.7 0 1583.3 0 1500 0C1416.7 0 1333.3 0 1250 0C1166.7 0 1083.3 0 1000 0C916.7 0 833.3 0 750 0C666.7 0 583.3 0 500 0C416.7 0 333.3 0 250 0C166.7 0 83.3 0 41.7 0L0 0Z" fill="#3e79b2"></path><path d="M0 228L41.7 208.2C83.3 188.3 166.7 148.7 250 127C333.3 105.3 416.7 101.7 500 118.3C583.3 135 666.7 172 750 182.7C833.3 193.3 916.7 177.7 1000 167.3C1083.3 157 1166.7 152 1250 164C1333.3 176 1416.7 205 1500 200.3C1583.3 195.7 1666.7 157.3 1750 155.5C1833.3 153.7 1916.7 188.3 2000 193C2083.3 197.7 2166.7 172.3 2250 151.7C2333.3 131 2416.7 115 2458.3 107L2500 99L2500 0L2458.3 0C2416.7 0 2333.3 0 2250 0C2166.7 0 2083.3 0 2000 0C1916.7 0 1833.3 0 1750 0C1666.7 0 1583.3 0 1500 0C1416.7 0 1333.3 0 1250 0C1166.7 0 1083.3 0 1000 0C916.7 0 833.3 0 750 0C666.7 0 583.3 0 500 0C416.7 0 333.3 0 250 0C166.7 0 83.3 0 41.7 0L0 0Z" fill="#3f658e"></path><path d="M0 68L41.7 86.5C83.3 105 166.7 142 250 145.8C333.3 149.7 416.7 120.3 500 116.2C583.3 112 666.7 133 750 147.7C833.3 162.3 916.7 170.7 1000 157.7C1083.3 144.7 1166.7 110.3 1250 96.8C1333.3 83.3 1416.7 90.7 1500 101.3C1583.3 112 1666.7 126 1750 123.7C1833.3 121.3 1916.7 102.7 2000 91.5C2083.3 80.3 2166.7 76.7 2250 74C2333.3 71.3 2416.7 69.7 2458.3 68.8L2500 68L2500 0L2458.3 0C2416.7 0 2333.3 0 2250 0C2166.7 0 2083.3 0 2000 0C1916.7 0 1833.3 0 1750 0C1666.7 0 1583.3 0 1500 0C1416.7 0 1333.3 0 1250 0C1166.7 0 1083.3 0 1000 0C916.7 0 833.3 0 750 0C666.7 0 583.3 0 500 0C416.7 0 333.3 0 250 0C166.7 0 83.3 0 41.7 0L0 0Z" fill="#3c516b"></path><path d="M0 119L41.7 122.8C83.3 126.7 166.7 134.3 250 135.2C333.3 136 416.7 130 500 124.3C583.3 118.7 666.7 113.3 750 114.3C833.3 115.3 916.7 122.7 1000 119C1083.3 115.3 1166.7 100.7 1250 89.5C1333.3 78.3 1416.7 70.7 1500 76C1583.3 81.3 1666.7 99.7 1750 112.3C1833.3 125 1916.7 132 2000 122.7C2083.3 113.3 2166.7 87.7 2250 73C2333.3 58.3 2416.7 54.7 2458.3 52.8L2500 51L2500 0L2458.3 0C2416.7 0 2333.3 0 2250 0C2166.7 0 2083.3 0 2000 0C1916.7 0 1833.3 0 1750 0C1666.7 0 1583.3 0 1500 0C1416.7 0 1333.3 0 1250 0C1166.7 0 1083.3 0 1000 0C916.7 0 833.3 0 750 0C666.7 0 583.3 0 500 0C416.7 0 333.3 0 250 0C166.7 0 83.3 0 41.7 0L0 0Z" fill="#353e4b"></path><path d="M0 58L41.7 63.5C83.3 69 166.7 80 250 83.7C333.3 87.3 416.7 83.7 500 74.8C583.3 66 666.7 52 750 41.7C833.3 31.3 916.7 24.7 1000 33.3C1083.3 42 1166.7 66 1250 75.7C1333.3 85.3 1416.7 80.7 1500 76.2C1583.3 71.7 1666.7 67.3 1750 62.3C1833.3 57.3 1916.7 51.7 2000 45C2083.3 38.3 2166.7 30.7 2250 29.8C2333.3 29 2416.7 35 2458.3 38L2500 41L2500 0L2458.3 0C2416.7 0 2333.3 0 2250 0C2166.7 0 2083.3 0 2000 0C1916.7 0 1833.3 0 1750 0C1666.7 0 1583.3 0 1500 0C1416.7 0 1333.3 0 1250 0C1166.7 0 1083.3 0 1000 0C916.7 0 833.3 0 750 0C666.7 0 583.3 0 500 0C416.7 0 333.3 0 250 0C166.7 0 83.3 0 41.7 0L0 0Z" fill="#2c2c2c"></path></svg>