<svg xmlns="http://www.w3.org/2000/svg" viewBox="0 0 2500 600" style="enable-background:new 0 0 2500 600" xml:space="preserve"><path style="fill:#ffffff00" d="M0 0h2500v600H0z"/><path d="m0 539 41.7-10.5C83.3 518 166.7 497 250 483.3c83.3-13.6 166.7-20 250-13.1 83.3 6.8 166.7 26.8 250 41.1 83.3 14.4 166.7 23 250 13.2s166.7-38.2 250-38.3c83.3-.2 166.7 27.8 250 39 83.3 11.1 166.7 5.5 250 3.1 83.3-2.3 166.7-1.3 250 2 83.3 3.4 166.7 9 250-1.6 83.3-10.7 166.7-37.7 208.3-51.2L2500 464v137H0v-62z" style="fill:#353e4b"/></svg>