<?xml version="1.0" encoding="utf-8"?>
<!-- Generator: Adobe Illustrator 24.0.1, SVG Export Plug-In . SVG Version: 6.00 Build 0)  -->
<svg version="1.1" id="visual" xmlns="http://www.w3.org/2000/svg" xmlns:xlink="http://www.w3.org/1999/xlink" x="0px" y="0px"
	 viewBox="0 0 2500 600" style="enable-background:new 0 0 2500 600;" xml:space="preserve">
<style type="text/css">
	.st0{fill:#222222;}
	.st1{fill:#2AA4FE;}
	.st2{fill:#398ED7;}
	.st3{fill:#3E79B2;}
	.st4{fill:#3F658E;}
	.st5{fill:#3C516B;}
	.st6{fill:#353E4B;}
	.st7{fill:#2C2C2C;}
</style>
<rect y="0" class="st0" width="2500" height="600"/>
<path class="st1" d="M0,310l41.7-9c41.6-9,125-27,208.3-19.3c83.3,7.6,166.7,41,250,32.3s166.7-59.3,250-59s166.7,51.7,250,73.8
	c83.3,22.2,166.7,15.2,250-0.6c83.3-15.9,166.7-40.5,250-49s166.7-0.9,250,2.6s166.7,2.9,250,7.2s166.7,13.7,250,5.3
	c83.3-8.3,166.7-34.3,208.3-47.3l41.7-13v367h-41.7c-41.6,0-125,0-208.3,0s-166.7,0-250,0s-166.7,0-250,0s-166.7,0-250,0
	s-166.7,0-250,0s-166.7,0-250,0s-166.7,0-250,0s-166.7,0-250,0s-166.7,0-250,0s-166.7,0-208.3,0H0V310z"/>
<path class="st2" d="M0,271l41.7,16c41.6,16,125,48,208.3,51.5s166.7-21.5,250-31.7c83.3-10.1,166.7-5.5,250,1.2
	s166.7,15.3,250,28.8s166.7,31.9,250,36c83.3,4.2,166.7-5.8,250-23.6c83.3-17.9,166.7-43.5,250-59.2s166.7-21.3,250-22
	s166.7,3.7,250,25.2s166.7,60.1,208.3,79.5L2500,392v209h-41.7c-41.6,0-125,0-208.3,0s-166.7,0-250,0s-166.7,0-250,0s-166.7,0-250,0
	s-166.7,0-250,0s-166.7,0-250,0s-166.7,0-250,0s-166.7,0-250,0s-166.7,0-250,0s-166.7,0-208.3,0H0V271z"/>
<path class="st3" d="M0,371l41.7-2.5c41.6-2.5,125-7.5,208.3-1.2c83.3,6.4,166.7,24,250,29s166.7-2.6,250-8
	c83.3-5.3,166.7-8.3,250-18.5c83.3-10.1,166.7-27.5,250-28.6c83.3-1.2,166.7,13.8,250,10.8s166.7-24,250-21.8
	c83.3,2.1,166.7,27.5,250,46.3s166.7,31.2,250,30.3c83.3-0.8,166.7-14.8,208.3-21.8l41.7-7v223h-41.7c-41.6,0-125,0-208.3,0
	s-166.7,0-250,0s-166.7,0-250,0s-166.7,0-250,0s-166.7,0-250,0s-166.7,0-250,0s-166.7,0-250,0s-166.7,0-250,0s-166.7,0-250,0
	s-166.7,0-208.3,0H0V371z"/>
<path class="st4" d="M0,467l41.7-7c41.6-7,125-21,208.3-40.2c83.3-19.1,166.7-43.5,250-36.6c83.3,6.8,166.7,44.8,250,54.1
	c83.3,9.4,166.7-10,250-23.6c83.3-13.7,166.7-21.7,250-13c83.3,8.6,166.7,34,250,42.3s166.7-0.3,250-6.2
	c83.3-5.8,166.7-8.8,250-18.5c83.3-9.6,166.7-26,250-18.1c83.3,7.8,166.7,39.8,208.3,55.8l41.7,16v129h-41.7c-41.6,0-125,0-208.3,0
	s-166.7,0-250,0s-166.7,0-250,0s-166.7,0-250,0s-166.7,0-250,0s-166.7,0-250,0s-166.7,0-250,0s-166.7,0-250,0s-166.7,0-250,0
	s-166.7,0-208.3,0H0V467z"/>
<path class="st5" d="M0,487l41.7-13.7c41.6-13.6,125-41,208.3-44.8s166.7,15.8,250,32.7C583.3,478,666.7,492,750,485
	s166.7-35,250-34.8c83.3,0.1,166.7,28.5,250,29.1c83.3,0.7,166.7-26.3,250-42.6c83.3-16.4,166.7-22,250-10.9
	c83.3,11.2,166.7,39.2,250,54.2s166.7,17,250,8.2c83.3-8.9,166.7-28.5,208.3-38.4l41.7-9.8v161h-41.7c-41.6,0-125,0-208.3,0
	s-166.7,0-250,0s-166.7,0-250,0s-166.7,0-250,0s-166.7,0-250,0s-166.7,0-250,0s-166.7,0-250,0s-166.7,0-250,0s-166.7,0-250,0
	s-166.7,0-208.3,0H0V487z"/>
<path class="st6" d="M0,539l41.7-10.5C83.3,518,166.7,497,250,483.3c83.3-13.6,166.7-20,250-13.1c83.3,6.8,166.7,26.8,250,41.1
	c83.3,14.4,166.7,23,250,13.2s166.7-38.2,250-38.3c83.3-0.2,166.7,27.8,250,39c83.3,11.1,166.7,5.5,250,3.1
	c83.3-2.3,166.7-1.3,250,2c83.3,3.4,166.7,9,250-1.6c83.3-10.7,166.7-37.7,208.3-51.2L2500,464v137h-41.7c-41.6,0-125,0-208.3,0
	s-166.7,0-250,0s-166.7,0-250,0s-166.7,0-250,0s-166.7,0-250,0s-166.7,0-250,0s-166.7,0-250,0s-166.7,0-250,0s-166.7,0-250,0
	s-166.7,0-208.3,0H0V539z"/>
<path class="st7" d="M0,584l41.7-11.8c41.6-11.9,125-35.5,208.3-45.7s166.7-6.8,250,1s166.7,20.2,250,18.3
	c83.3-1.8,166.7-17.8,250-16.5c83.3,1.4,166.7,20,250,30.2s166.7,11.8,250,1.8s166.7-31.6,250-39.8s166.7-2.8,250,7.8
	c83.3,10.7,166.7,26.7,250,31.9c83.3,5.1,166.7-0.5,208.3-3.4l41.7-2.8v46h-41.7c-41.6,0-125,0-208.3,0s-166.7,0-250,0
	s-166.7,0-250,0s-166.7,0-250,0s-166.7,0-250,0s-166.7,0-250,0s-166.7,0-250,0s-166.7,0-250,0s-166.7,0-250,0s-166.7,0-208.3,0H0
	V584z"/>
</svg>
