<?xml version="1.0" encoding="utf-8"?>
<!-- Generator: Adobe Illustrator 24.0.1, SVG Export Plug-In . SVG Version: 6.00 Build 0)  -->
<svg version="1.1" id="Calque_1" xmlns="http://www.w3.org/2000/svg" xmlns:xlink="http://www.w3.org/1999/xlink" x="0px" y="0px"
	 viewBox="0 0 350 350" style="enable-background:new 0 0 350 350;" xml:space="preserve">
<style type="text/css">
	.st0{display:none;}
	.st1{display:inline;}
	.st2{fill:#FFFFFF;}
</style>
<g class="st0">
	<g class="st1">
		<path d="M42.3,205.6c0.7-0.7,1.6-0.8,2.6-0.6c2.3,0.3,4.7,0.5,7,0.9c1.3,0.2,2.6,0.6,3.9,0.8c1.2,0.2,2.4,0.4,3.6,0.6
			c0.9,0.2,1.8,0.4,2.7,0.6c1.3,0.3,2.7,0.6,3.9,0.9c1.1,0.3,2.2,0.7,3.2,1.2c2.8,1.3,5.5,2.8,8,4.7c2,1.6,3.8,3.5,5.5,5.4
			c1.5,1.6,3,3.2,4.3,5c1.6,2.1,3.3,4.2,4.5,6.6c0.5,1,0.4,1.4-0.6,1.9c-1.1,0.5-2.2,0.9-3.4,1.2c-1.5,0.5-3,0.9-4.6,1.3
			c-1.7,0.4-3.5,0.7-5.3,1c-1.5,0.2-3,0.5-4.5,0.5c-3.3-0.1-6.4-0.9-9.3-2.5c-1.2-0.7-2.4-1.3-3.5-2.1c-1.2-0.9-2.4-1.8-3.6-2.8
			c-2.6-2.3-4.8-4.9-6.8-7.7c-2.2-3.1-4.2-6.4-5.8-9.8c-0.8-1.7-1.4-3.4-1.8-5.3c0-0.1-0.1-0.2-0.2-0.3
			C42.3,206.5,42.3,206.1,42.3,205.6z"/>
		<path d="M175.3,76.5c2.3,0.1,4.5,0.2,6.8,0.3c0.9,0,1.6,0.4,2.4,0.6c2.6,0.6,5.1,1.6,7.5,2.7c1,0.5,1.8,1.1,2.7,1.7
			c1.4,1,2.6,2.1,3.8,3.3c2.5,2.5,4.4,5.4,5.7,8.6c1,2.5,1.9,5,2.3,7.6c0.3,1.7,0.3,3.4,0.6,5.1c0.3,1.9,0.3,3.7,0.2,5.6
			c-0.2,3.7-0.5,7.3-1.6,10.8c-1.2,3.5-2.8,6.8-5,9.7c-2.2,3-4.9,5.4-7.6,8c-1.4,1.3-2.9,2.5-4.3,3.7c-0.6,0.6-1.2,1.2-1.6,1.9
			c-0.4,0.7-0.5,1.5-0.3,2.3c0.3,1.6,1.1,2.9,1.9,4.2c1.3,2.3,3.1,4.3,5.4,5.7c1.5,0.9,3.2,1.7,4.9,2.4c2.2,0.9,4.6,1.3,6.9,1.8
			c3.8,0.7,7.6,1.6,11.3,2.9c1.8,0.6,3.4,1.5,5,2.5c2.6,1.5,4.8,3.5,6.7,5.9c1.5,2,2.9,4.1,3.9,6.4c1.7,3.7,3.1,7.5,4.2,11.4
			c1.1,3.7,2.2,7.4,3.2,11.1c0.6,2.3,1.1,4.6,1.7,6.8c0.6,2.4,1.1,4.8,1.6,7.2c0.3,1.3,0.6,2.6,0.8,3.8c0.2,1.1,0.4,2.3,0.6,3.4
			c0.3,1.5,0.6,3,0.8,4.4c0.2,1.2,0.3,2.5,0.4,3.7c0.4,3.1,0.3,6.1,0.2,9.2c0,0.9-0.3,1.9-0.6,2.8c-0.2,0.6-0.8,1.2-1.3,1.7
			c-2,2-4.4,3.3-6.9,4.4c-1.8,0.8-3.7,1.6-5.5,2.3c-2.1,0.9-4.3,1.7-6.4,2.5c-2.9,1.1-5.8,2.1-8.7,3.1c-2.7,0.9-5.4,1.8-8.1,2.8
			c-1,0.4-2.1,0.9-3.1,1.2c-0.7,0.3-1.5,0.5-2.2,0.8c-2.1,0.8-4.2,1.6-6.4,2.4c-1.5,0.6-3.1,1.1-4.6,1.7c-2,0.8-3.9,1.6-5.8,2.5
			c-2.2,1-4.4,2-6.8,2.6c-3,0.8-6,0.9-9.1,0.3c-2-0.4-3.9-1.2-5.7-2c-3.9-1.9-7.9-3.4-11.9-4.9c-3.2-1.2-6.3-2.4-9.5-3.5
			c-2.8-1-5.6-1.9-8.3-2.9c-1.3-0.5-2.7-1-4-1.5c-2-0.7-4-1.4-6-2.1c-0.9-0.3-1.8-0.7-2.7-1c-2-0.8-4-1.5-6-2.3
			c-1.8-0.8-3.6-1.7-5.5-2.4c-2.5-1-4.7-2.4-6.8-4.1c-1.1-0.9-2.1-1.9-2.3-3.4c-0.1-1.1-0.1-2.2,0-3.2c0.3-2.3,0.6-4.6,1-6.9
			c0.2-1.4,0.6-2.8,0.9-4.2c0.2-0.9,0.3-1.7,0.5-2.6c0.2-1.4,0.5-2.7,0.7-4.1c0.2-1.2,0.5-2.3,0.7-3.5c0.5-2.1,0.9-4.1,1.4-6.2
			c0.6-2.6,1.2-5.1,1.9-7.6c1-3.8,2.1-7.7,3.3-11.5c0.7-2.2,1.5-4.4,2.3-6.6c0.4-1.2,0.8-2.3,1.3-3.5c0.8-1.7,1.6-3.3,2.4-4.9
			c1.6-3.2,3.9-5.9,6.7-8.1c1.1-0.9,2.4-1.6,3.7-2.4c2.4-1.4,5.1-2.1,7.7-2.8c1.6-0.5,3.3-1,4.9-1.4c1.6-0.4,3.3-0.6,4.9-0.9
			c3.9-0.6,7.3-2.4,10.4-4.8c1.7-1.3,3.3-2.8,4.5-4.6c0.8-1.1,1.2-2.3,1.6-3.6c0.3-0.9-0.2-1.8-0.6-2.5c-1.4-2.5-3.6-4.3-6-5.9
			c-0.2-0.1-0.4-0.2-0.6-0.4c-2-1.9-4.1-3.8-5.8-6c-2.1-2.8-3.9-5.8-5.1-9.1c-0.7-1.9-1.2-3.8-1.7-5.7c-1.4-4.7-1.3-9.5-0.9-14.4
			c0.1-1.6,0.6-3.1,1.1-4.6c0.5-1.8,1.2-3.6,1.9-5.3c1.2-2.9,2.7-5.6,4.8-7.9c0.6-0.7,1.1-1.5,1.8-2.1c3.1-3.1,6.6-5.4,10.8-6.9
			c1.5-0.5,2.9-1,4.4-1.4c1-0.2,2.1-0.3,3.1-0.3c1.6,0,3.3,0,4.9,0C175.3,76.6,175.3,76.5,175.3,76.5z M155.6,182.2
			c-0.6,0.1-1.4,0.3-2.4,0.4c-2,0.1-3.8,0.8-5.6,1.5c-1.5,0.6-2.8,1.4-4.1,2.4c-2.5,1.9-4.7,4.1-6.2,6.8c-0.4,0.7-0.9,1.4-1.3,2.2
			c-1.8,3.6-3.6,7.1-5.3,10.7c-1.6,3.4-3.1,6.8-4.5,10.3s-2.6,7.1-3.8,10.7c-0.3,0.8-0.3,1.6-0.5,2.5s0.2,1.4,0.9,1.9
			c0.8,0.6,1.5,1.3,2.4,1.8c2.1,1.5,4.2,2.9,6.3,4.3c2,1.3,4,2.6,5.9,3.9c2.6,1.7,5.2,3.5,7.8,5.3c1,0.7,2,1.3,3,1.9
			c2.2,1.5,4.4,2.9,6.5,4.4c2.7,1.8,5.5,3.5,8.2,5.3c2.2,1.5,4.4,3,6.6,4.6c1.1,0.8,2.4,1.5,3.1,2.9c0.3,0.5,0.9,0.9,1.3,1.4
			c0.3,0.4,0.8,0.5,1.3,0.5c1.3,0.1,2.2-0.6,2.7-1.6c0.7-1.2,1.7-2.1,2.8-2.9c1.6-1.1,3.3-2.3,4.9-3.4c2.8-1.9,5.7-3.8,8.5-5.7
			c3-1.9,5.9-3.9,8.9-5.8c3.6-2.3,7.1-4.6,10.7-6.9c1.9-1.3,3.9-2.5,5.8-3.7c2.5-1.6,4.9-3.3,7.4-4.8c1-0.6,1.2-1.4,1-2.4
			c-0.1-0.2-0.1-0.5-0.2-0.7c-1.1-3.3-2.1-6.6-3.2-9.8c-1-2.9-2-5.7-3-8.5c-0.9-2.5-2-4.9-2.9-7.5c-1.1-2.9-2.2-5.8-3.8-8.5
			c-1.7-2.9-3.7-5.6-6.2-7.9c-0.7-0.6-1.4-1.2-2.1-1.7c-2.3-1.9-4.9-3.1-7.9-3.4c-0.2,0-0.4-0.1-0.6-0.1c-0.6-0.1-1.2-0.3-1.8-0.2
			c-1.5,0.1-3,0.1-4.4,0.5c-2.1,0.5-4.2,1-6.1,2c-3.1,1.6-5.7,3.6-7.8,6.4c-0.7,0.9-1.5,1.8-2.3,2.6c-0.6,0.6-1,0.5-1.6,0
			s-1.1-1-1.5-1.6c-1.1-1.5-2.2-2.9-3.5-4.3C165.6,184.1,161,182.6,155.6,182.2z"/>
		<path d="M275.4,237.6c-2.2-0.3-4.3-0.6-6.5-0.9c-1.5-0.3-3.1-0.5-4.6-0.9c-1.6-0.4-3.2-1-4.7-1.6c-0.6-0.2-1.1-0.4-1.7-0.6
			c-1-0.5-1.2-0.8-0.6-1.8s1.1-2,1.8-2.9c2.3-3.2,4.8-6.3,7.5-9.3c2.5-2.8,5.3-5.3,8.5-7.3c1-0.6,2-1.1,3.1-1.6c1-0.5,2-0.9,3-1.3
			c0.8-0.3,1.7-0.6,2.6-0.8c2.6-0.6,5.3-1.1,7.9-1.7c1.2-0.2,2.5-0.4,3.7-0.6c1.4-0.3,2.8-0.6,4.2-0.8c0.9-0.1,1.8-0.2,2.7-0.3
			c0.8-0.1,1.7-0.2,2.5-0.2c0.3,0,0.7,0.1,1,0.2c0.6,0.3,0.8,0.7,0.7,1.4c-0.5,2.6-1.4,5-2.6,7.4c-1.4,2.6-2.8,5.1-4.5,7.5
			c-1.3,1.9-2.7,3.7-4.3,5.4c-1.4,1.6-3,3.2-4.7,4.5c-2.1,1.7-4.4,3-6.7,4.2C281.2,236.9,278.4,237.6,275.4,237.6z"/>
		<path d="M285,161c-0.2,1.6-0.4,3.2-0.6,4.7c-0.2,1.4-0.3,2.8-0.7,4.1c-0.6,2.2-1.3,4.4-2,6.5c-0.8,2.3-1.8,4.5-3,6.6
			c-1.7,2.9-4,5.5-6.6,7.7c-1,0.8-2.2,1.3-3.3,1.9c-2.2,1-4.6,1.4-7,1.7s-4.8,0.5-7.3,0.7c-1.1,0.1-2.2,0-3.2-0.1
			c-0.8-0.1-0.9-0.2-0.8-1c0.1-1,0.3-2.1,0.6-3c0.6-2.1,1.3-4.1,2-6.1c0.6-1.8,1.3-3.7,2.1-5.5c0.7-1.5,1.5-3,2.3-4.4
			c1.1-1.9,2.5-3.6,4-5.1c1.7-1.8,3.5-3.4,5.6-4.6c2.8-1.6,5.5-3.3,8.3-4.9c1.5-0.9,3.1-1.7,4.6-2.5c0.8-0.4,1.5-0.9,2.3-1.2
			c0.5-0.2,1-0.3,1.5-0.2c0.6,0.1,0.9,0.7,0.9,1.3c0.1,1.2,0.1,2.4,0.2,3.6C284.9,161,285,161,285,161z"/>
		<path d="M64.1,161c0-0.9,0-1.8,0-2.6c0-0.2,0-0.5,0-0.7c0.2-1.5,1-2,2.4-1.3c5.2,2.6,10.3,5.5,15.3,8.6c3,1.8,5.4,4.2,7.6,6.9
			c2.3,2.8,3.9,6,5.2,9.3c1.1,2.8,2,5.6,2.9,8.5c0.4,1.3,0.7,2.6,0.9,4c0.2,1,0.1,1.2-1,1.3c-0.9,0.1-1.9,0.1-2.9,0.1
			c-0.9,0-1.8-0.2-2.7-0.2c-3-0.1-5.9-0.6-8.9-1.3c-2.1-0.4-4-1.4-5.7-2.6c-0.9-0.6-1.7-1.5-2.6-2.3c-2.8-2.7-4.8-5.9-6.4-9.5
			c-1.2-2.7-2.2-5.4-2.8-8.3c-0.4-2.1-1-4.1-1.3-6.2C64,163.4,64.2,162.2,64.1,161C64.2,161,64.1,161,64.1,161z"/>
		<path d="M232.7,152.6c0-1.7-0.1-3.4,0-5.2c0.1-2,0.6-3.8,1.2-5.7c1.1-3.8,3.1-7.1,5.7-10.2c2.1-2.5,4.1-5,6.2-7.4
			c0.6-0.7,1.2-1.4,1.9-2c1.2-1.2,1.9-1.1,2.6,0.5c0.7,1.5,1.3,3.1,1.7,4.8c0.5,2,0.9,4,1.1,6.1c0.1,1.9,0.3,3.7,0.3,5.6
			c0,2.7-0.3,5.4-1.1,8c-0.7,2.4-1.7,4.6-3.2,6.7c-0.7,0.9-1.6,1.7-2.5,2.4c-0.7,0.6-1.4,1-2.2,1.5c-3,2-6.2,3.5-9.6,4.7
			c-0.2,0.1-0.5,0.2-0.7,0.2c-0.6,0.1-0.8-0.1-0.9-0.7c-0.2-1.3-0.5-2.7-0.5-4C232.7,156.2,232.7,154.4,232.7,152.6L232.7,152.6z"/>
		<path d="M116.2,152.8c0,1.9,0.1,3.8,0,5.6c-0.1,1.2-0.3,2.4-0.5,3.7c-0.1,0.6-0.5,0.8-1.3,0.6c-0.9-0.3-1.7-0.6-2.6-1
			c-1.4-0.6-2.9-1.2-4.2-2c-2.4-1.5-5.1-2.7-7-4.9c-0.6-0.7-1.2-1.4-1.6-2.2c-1.8-3.4-3-6.9-3.2-10.8c0-1.3-0.3-2.5-0.2-3.8
			c0.1-2.6,0.3-5.2,0.8-7.8c0.4-2.1,1-4,1.7-6c0.2-0.7,0.5-1.3,0.9-2c0.6-1.1,1.3-1.2,2.1-0.3c1.1,1.1,2.1,2.2,3.1,3.3
			c0.8,0.9,1.6,1.9,2.4,2.8c1.4,1.7,2.7,3.3,4.1,5c2.3,2.9,3.8,6.1,4.8,9.7c0.6,2.4,1,4.7,0.9,7.2
			C116.2,150.9,116.2,151.9,116.2,152.8L116.2,152.8z"/>
		<path d="M213.3,210.9c0.1,1.6,0,3.2-0.6,4.7c-0.5,1.2-1.1,2.5-1.8,3.6c-1.8,2.7-3.9,5.1-6.5,7.1c-1.1,0.9-2.2,1.9-3.3,2.8
			c-0.8,0.6-1.6,1.2-2.3,1.8c-1.2,0.9-2.3,1.8-3.5,2.7c-0.3,0.2-0.5,0.4-0.7,0.6c-1.5,1.5-3.1,2.9-4.6,4.5c-1.6,1.6-3.1,3.2-4.6,4.9
			c-1.4,1.6-2.7,3.4-4,5.1c-1.6,2.1-2.8,4.4-3.9,6.7c-0.4,0.8-0.8,1.5-1.3,2.2c-0.7,1-1.4,1-2,0c-0.7-1.3-1.3-2.6-2-3.9
			c-0.7-1.3-1.4-2.7-2.3-3.9c-1.9-2.8-4.1-5.4-6.6-7.7c-1.9-1.7-3.6-3.5-5.5-5.1c-1.1-0.9-2.2-1.8-3.3-2.8c-1-1-2.1-1.8-3.2-2.6
			c-3.4-2.5-6.4-5.3-9.1-8.4c-2-2.3-3.5-5-4.4-8c-0.6-2.1-0.8-4.4-0.5-6.5c0.5-3.1,1.6-6,3.4-8.6c1.3-1.9,2.7-3.6,4.7-4.9
			c1.7-1.1,3.5-1.9,5.4-2.4s3.9-0.5,5.8-0.3c1,0.1,2,0.4,2.9,0.8c1.7,0.6,3.4,1.4,4.9,2.4s2.7,2.2,3.9,3.5c2.5,2.8,4,6.2,5.2,9.7
			c0.3,0.8,0.6,1.6,0.9,2.3c0.2,0.4,0.4,1,1,0.9c0.5,0,0.8-0.5,1-0.9c0.5-1.3,0.9-2.5,1.4-3.8c0.8-2.2,1.7-4.4,2.9-6.4
			c0.9-1.5,1.9-2.9,3.1-4.1c1.6-1.7,3.6-2.7,5.7-3.4c1.5-0.5,3.1-0.8,4.6-1.1c0.7-0.1,1.4,0.1,2.1,0.1c0.4,0,0.7,0.2,1,0.2
			c2.6,0.1,4.8,1.2,6.9,2.4c3.8,2.2,6.4,5.4,8,9.5C213.1,206.5,213.4,208.7,213.3,210.9z"/>
	</g>
</g>
<g class="st0">
	<g class="st1">
		<path d="M93.9,273.9c0.5-2.1,1-4.1,1.4-6.2c2.5-11.8,5.1-23.6,7.6-35.3c1.1-5,2-10,3-15c2.3-10.6,5-21.2,8.7-31.4
			c1.1-3,2.4-5.9,3.8-8.7c3.5-6.7,9-10.8,16.2-12.9c2.4-0.7,4.9-1.4,7.4-2c2-0.5,4-0.6,6-1.2c5.4-1.4,9.8-4.4,13.2-8.8
			c0.9-1.2,1.4-2.5,1.8-3.9c0.1-0.5-0.1-1.2-0.3-1.7c-0.9-2-2.4-3.7-4.2-5c-2.4-1.7-4.6-3.6-6.6-5.7c-3.9-4.1-6.5-8.9-8-14.4
			c-0.6-2.1-1.1-4.2-1.5-6.3c-0.5-2.7-0.5-5.5-0.3-8.2c0.2-5.8,2.2-11,4.9-15.9c3.2-6,8.2-10.4,14.4-13.2c8-3.6,16.2-4.1,24.5-1.1
			c6.8,2.4,12.5,6.4,16.4,12.6c2.4,3.9,4,8.2,4.5,12.9c0.3,2.8,0.8,5.5,0.7,8.3c-0.2,4.8-0.6,9.6-2.5,14.2
			c-2.1,5.2-5.4,9.5-9.5,13.2c-2.1,1.9-4.3,3.8-6.4,5.8c-0.1,0.1-0.3,0.3-0.4,0.4c-2,1.9-2.2,3.3-1,5.8c2,4.1,4.8,7.3,9.1,9.3
			c3,1.3,6,2.2,9.2,2.8c3.9,0.7,7.7,1.6,11.4,2.9c7.2,2.7,12.3,7.7,15.5,14.6c2.4,5,3.9,10.3,5.5,15.6c2.3,7.9,4.3,16,6,24.1
			c3.8,18,7.6,36,11.4,53.9c0,0.2,0.1,0.4,0.2,0.5C201.9,273.9,147.9,273.9,93.9,273.9z M209.6,230.9c0-0.1,0-0.2,0-0.3
			c0.2-0.3,0.4-0.6,0.6-0.9c1.5-2.3,3.3-4.3,5.3-6.2c4.1-3.7,6.9-8.2,8.4-13.5c0.9-3.2,0.9-6.4,0.8-9.6c-0.1-3-0.8-5.9-1.9-8.7
			c-0.5-1.1-1.3-1.9-2.6-2c-2.2-0.1-4.4,0-6.5,0.6c-3.5,1.1-6.7,2.7-9.7,4.8c-3.1,2.1-6.1,4.4-9.1,6.6c0,0-0.1-0.1-0.1-0.2
			c-0.1-0.3-0.2-0.6-0.4-0.9c-3.3-8.8-9.2-15.4-17.3-20c-1.4-0.8-2.9-0.8-4.3,0c-6,3.4-10.6,8.1-13.9,14.2c-1.3,2.4-2.2,4.9-3,7.6
			c-0.4-0.3-0.7-0.6-0.9-0.9c-2.9-2.8-6-5.3-9.4-7.4c-5.2-3.2-10.8-5-17-4.1c-0.6,0.1-1.1,0.4-1.6,0.7c-1,0.7-1.1,1.8-1.2,2.9
			c-0.6,3.5-0.8,7-0.5,10.6c0.2,3.3,0.9,6.4,2.1,9.4c1.5,3.8,3.8,7,6.8,9.7c2,1.8,3.8,3.9,5.2,6.2c0.2,0.3,0.3,0.6,0.5,0.9
			c-0.3,0-0.4,0-0.6,0c-2.1-0.3-4.2-0.7-6.3-1c-3.6-0.5-7.2-0.7-10.8-0.7c-0.7,0-1.2,0.2-1.7,0.6c-1.2,1.1-1.4,3.3-0.4,4.7
			c2.9,3.8,6.3,7.3,10.1,10.2c6.7,5.2,14,9.1,22.6,10.2c2.2,0.3,3.9,1.4,5.2,3.3c1.1,1.5,1.8,3.2,2.4,4.9c1,3.2,4.5,6.4,8.7,6.1
			c4.5-0.3,9-0.4,13.5-0.5c3.8-0.1,6.8-2.2,8.2-5.7c0.5-1.4,1.2-2.7,1.9-4c1.3-2.5,3.4-4.2,6.1-5c0.7-0.2,1.4-0.5,2.2-0.6
			c4.7-0.8,9.2-2.1,13.6-4.1c3.9-1.8,7.6-3.9,10.6-7.1c3.1-3.2,4.6-6.8,4.2-11.3c-0.1-0.7-0.3-1.3-0.8-1.8c-1-1.2-2.4-1.1-3.7-0.9
			c-2.9,0.5-5.9,1.2-8.8,1.7C213.9,230.1,211.8,230.5,209.6,230.9z"/>
		<path d="M42.1,206.9c0.1-0.7,0.2-1.2,0.3-1.7c0.7-0.7,1.6-0.7,2.4-0.6c3.7,0.5,7.3,0.9,11,1.7c3.1,0.7,6.3,1.2,9.5,1.9
			c3.6,0.8,6.8,2.7,9.9,4.6c2.3,1.4,4.2,3.2,6,5.1c3.1,3.2,6,6.5,8.5,10.2c0.6,0.9,1.2,1.9,1.8,2.8c0.8,1.4,0.6,1.9-0.9,2.5
			c-1.9,0.7-3.9,1.4-5.9,1.9c-3.5,0.8-6.9,1.5-10.4,1.9c-3.2,0.4-6.3-0.5-9.3-1.9c-5.1-2.5-9.5-6-13-10.5c-3.3-4.1-6.1-8.5-8.2-13.3
			C43,210.1,42.6,208.4,42.1,206.9z"/>
		<path d="M256.6,232.5c0.8-1.3,1.4-2.5,2.2-3.6c2.8-4,5.9-7.8,9.3-11.4c4.3-4.4,9.3-7.6,15.3-9.1c3.8-1,7.7-1.6,11.6-2.4
			c1.4-0.3,2.8-0.6,4.2-0.8c1.7-0.2,3.4-0.4,5.1-0.6c0.3,0,0.6,0,0.9,0.1c1.1,0.3,1.5,0.8,1.2,1.9c-0.3,1.2-0.6,2.5-1.1,3.6
			c-2.3,5.9-5.7,11.1-9.8,15.9c-3.3,3.8-7.2,6.8-11.7,9.1c-2.5,1.3-5.2,2-8,2.1c-1.3,0-2.7-0.2-4-0.5c-2.6-0.4-5.2-0.8-7.7-1.4
			c-2.1-0.5-4.1-1.4-6.2-2.1C257.5,233.2,257.2,232.9,256.6,232.5z"/>
		<path d="M64.5,156.1c1-0.5,1.7-0.2,2.3,0.2c4.4,2.5,8.9,4.9,13.3,7.4c1.6,0.9,3.1,1.9,4.6,3.1c4.2,3.4,7.3,7.7,9.4,12.7
			c1.6,3.9,3,7.9,4,12c0.3,1,0.5,2.1,0.4,3.2c-1.5,0.4-3,0.5-4.5,0.4c-1.7-0.1-3.3-0.2-5-0.4c-2.8-0.3-5.6-0.7-8.3-1.7
			c-3.2-1.2-5.6-3.4-7.7-5.9c-4-4.7-6.3-10.2-7.6-16.2c-0.5-2-1-3.9-1.2-5.9c-0.2-2.4-0.1-4.8-0.1-7.2
			C64.1,157,64.4,156.5,64.5,156.1z"/>
		<path d="M250.3,194.4c0.1-1,0.1-2,0.4-2.9c1.8-5.8,3.4-11.6,6.6-16.8c2.5-4.2,5.8-7.6,10-10.1c4.4-2.6,8.9-5.1,13.4-7.7
			c0.6-0.4,1.3-0.7,2-0.9c1-0.3,1.2-0.2,1.9,0.6c0.7,3.4,0.2,6.6-0.3,9.9c-0.9,5.3-2.6,10.4-5,15.2c-1.7,3.4-4.2,6.2-7.1,8.6
			c-2,1.6-4.4,2.6-6.9,3.1c-4.1,0.8-8.3,1.2-12.5,1.3c-0.4,0-0.7,0-1.1-0.1C251.3,194.7,250.9,194.5,250.3,194.4z"/>
		<path d="M99.3,121.4c1-0.5,1.5-0.1,2,0.5c2.4,2.7,4.8,5.4,7.2,8.2c0.9,1,1.7,2,2.5,3.1c2.9,3.8,4.6,8.1,5.3,12.8
			c0.3,1.9,0.3,3.7,0,5.6c-0.1,0.9-0.1,1.8,0,2.7c0.2,2.6,0,5.3-0.5,7.8c0,0.1-0.1,0.2-0.1,0.3c-0.5,0.4-1,0.3-1.5,0.1
			c-1.6-0.7-3.2-1.2-4.7-2c-2.3-1.2-4.6-2.6-6.8-4c-1.8-1.2-3.1-2.8-4-4.7c-1.5-3.1-2.5-6.4-2.8-9.9c-0.5-6.2,0.2-12.2,2.3-18.1
			C98.4,122.9,99,122.1,99.3,121.4z"/>
		<path d="M249.7,121.3c0.2,0.4,0.5,0.8,0.8,1.3c1.2,2.5,1.9,5.2,2.4,8c0.5,3.1,0.8,6.2,0.7,9.3c-0.1,4.1-1,8-3,11.7
			c-1.1,2.1-2.7,3.8-4.6,5.1c-3.4,2.4-7.1,4.3-11.1,5.6c-0.4,0.1-0.9,0.2-1.4,0.3c-0.5-1.3-0.7-2.6-0.8-3.9c-0.1-4-0.2-7.9,0-11.9
			c0.1-3.1,1.1-6.1,2.6-8.9c1-1.9,2-3.7,3.3-5.4c2.6-3.3,5.3-6.4,8-9.6c0.4-0.5,0.9-0.9,1.4-1.3C248.4,121.2,248.9,121,249.7,121.3z
			"/>
		<path d="M176.1,262.1c-0.5,0-0.8,0.1-1.2,0.1c-0.3-1.8-0.5-3.5-0.8-5.2c-0.6-2.8-1.6-5.5-3.1-8c-0.5-0.8-0.5-1.7-0.6-2.5
			c-0.3-1.9-0.9-3.6-1.7-5.3c-1.5-3.1-2.9-6.2-4.4-9.3c-1.9-3.9-3.2-8-3.6-12.3c-0.9-9.6,1.3-18.3,6.9-26.1c1.9-2.7,4.4-4.8,7.2-6.4
			c0.3,0.2,0.6,0.3,0.9,0.5c7.2,4.9,11.7,11.7,13.7,20c0.8,3.1,1,6.3,0.7,9.5s-1.1,6.3-2.3,9.2c-2.1,5.1-4.1,10.2-6.2,15.3
			c-0.7,1.7-1.3,3.5-1.3,5.4c0,0.3-0.1,0.7-0.3,1c-1.9,3.8-3,7.8-3.7,11.9C176.2,260.8,176.2,261.4,176.1,262.1z"/>
		<path d="M131.9,196.2c1.7,0.2,3.3,0.6,4.8,1.1c3.7,1.4,6.9,3.5,9.9,5.9c2.7,2.2,5.2,4.6,7.6,7.4c-1.1,9.4,0.6,18.5,5.1,27.1
			c-1.7-0.9-3.3-1.8-5.1-2.6c-1.7-0.8-3.5-1.4-5.5-2.2c-0.8-1.4-1.6-2.9-2.5-4.4c-2.2-3.9-4.8-7.4-8.1-10.4s-5.1-6.9-6.1-11.1
			c-0.7-3.1-0.9-6.3-0.5-9.5C131.7,197,131.8,196.7,131.9,196.2z"/>
		<path d="M200.9,232.6c-1.7,0.5-3.3,0.8-4.9,1.3c-1.5,0.5-3,1.2-4.7,1.9c0.1-0.4,0.2-0.7,0.3-1c1.1-3,2.4-5.9,3.4-8.9
			c1.5-4.8,1.9-9.8,1.4-14.9c0-0.5-0.1-1-0.1-1.6c6.3-5.3,12.6-10.8,20.9-13.2c0.9,2.6,1.4,5.1,1.1,7.7c-0.4,4.5-2,8.6-4.9,12.1
			c-0.5,0.7-1.1,1.3-1.8,1.9C206.5,223,204.1,226.1,200.9,232.6z"/>
		<path d="M182.6,261.7c0.2-1,0.3-2,0.6-3c1.2-4.7,3.2-9,6.3-12.7c3.1-3.6,6.9-5.8,11.6-6.7c5.8-1.1,11.6-2.3,17.5-3.5
			c1-0.2,1.9-0.4,3.2-0.6c-0.5,0.7-0.9,1.3-1.3,1.8c-2.2,2.5-4.9,4.1-7.8,5.4c-4.3,2-8.7,3.3-13.4,4.2c-7.1,1.3-11.8,5.7-14.4,12.4
			c-0.2,0.5-0.3,1-0.6,1.4C184,261.1,183.6,261.6,182.6,261.7z"/>
		<path d="M168.3,262.1c-1-0.1-1.4-0.8-1.7-1.6c-0.5-1.2-0.9-2.4-1.4-3.5c-1.1-2.3-2.6-4.3-4.5-6c-2-1.8-4.4-2.7-7-3
			c-4.2-0.5-8.1-2.1-11.8-4c-3.9-2.1-7.5-4.6-10.9-7.6c-0.2-0.2-0.4-0.2-0.6-0.3c0.1-0.1,0.1-0.2,0.2-0.4c0.9,0.1,1.8,0.2,2.6,0.3
			c7.2,1.1,14.3,3,20.8,6.5c4,2.1,7.6,4.7,10.3,8.4c2.2,3,3.5,6.3,4,9.9C168.4,261.2,168.3,261.7,168.3,262.1z"/>
	</g>
</g>
<g>
	<g>
		<path class="st2" d="M97.6,306.6c-0.1-0.1-0.4-0.3-0.5-0.3c-10.5-1.5-20.3-11.1-21.7-24.9c-0.5-5,0.8-9.9,1.7-14.7
			c2.8-13.5,5.6-26.9,8.5-40.4c3-13.6,6.6-27.1,11.8-40.1c2.5-6.4,5.4-12.4,10.9-17.1c4.2-3.6,8.9-6.2,14.3-7.5
			c5.8-1.5,11.7-2.6,17.5-4.1c7.2-1.9,13-5.8,17.3-11.7c1.1-1.5,1.7-3.3,2.4-5.2c0.3-0.7-0.1-1.6-0.4-2.4c-1.6-3.3-4.2-5.7-7.3-7.8
			c-7.4-5.4-12.8-12.4-16.2-21.1c-3.4-9.1-5.2-18.7-3.3-28.5c6.4-32.4,35.4-43,57.5-35.1c15.2,5.6,24.6,16.3,27.5,32.3
			c1.5,8.3,1.6,16.8-0.4,25.2c-2.1,9.4-7.3,17.1-14.4,23.6c-2.9,2.6-5.8,5.2-8.7,7.8c-3,2.8-3.3,4.5-1.6,8.2
			c3.8,8.5,11,12.6,19.6,14.7c5.7,1.5,11.5,2.5,17.2,4.1c10.7,3,18.3,10.1,22.9,20.1c3.8,8.1,6.2,16.6,8.5,25.2
			c2.9,11.5,5.4,23,8.1,34.6c2.1,9.3,3.8,18.5,6,27.7c1.5,6.5,2,13-0.5,19.3c-3.6,9.4-9.8,15.6-20,17.6c-0.3,0-0.5,0.1-0.7,0.3
			C201.5,306.6,149.6,306.6,97.6,306.6z M128.9,249.3c-0.7,0-0.9,0-1.2-0.1c-7.3-1.5-14.7-2.3-22.2-2.1c-0.8,0-1.7,0.4-2.4,0.9
			c-1.6,1.3-1.7,4.4-0.3,6.2c6.1,7.8,13.2,14.2,21.7,19.2c6.4,3.7,13,6.6,20.4,7.5c4.4,0.5,7.4,2.8,9.3,6.6c0.8,1.6,1.5,3.2,2,4.8
			c1.7,4.8,5.8,7.7,10.9,7.7c6.1-0.1,12.2-0.5,18.3-0.5c3.8-0.1,7-1.5,9.3-4.6c0.9-1.3,1.6-2.8,2.3-4.4c2.1-5.3,5.3-9.5,11.1-11
			c1.6-0.4,3.3-0.8,4.9-1.1c9-1.9,17.6-5,25-10.6c6-4.5,10.1-10.1,9.4-18.1c-0.3-2.4-1.6-4.1-4-4c-2.3,0.1-4.6,0.7-6.9,1.1
			c-5,0.9-10.1,2-15.5,3c2.3-3.6,4.5-6.8,7.5-9.3c9.8-8.6,13.8-19.6,12.6-32.3c-0.3-3.4-1.5-6.9-2.4-10.2c-0.4-1.5-1.6-2.5-3.2-2.6
			c-1.9-0.1-3.8-0.1-5.7,0.1c-4.9,0.7-9.4,2.8-13.5,5.4c-5,3.2-9.8,6.8-14.7,10.2c-0.1-0.3-0.3-0.7-0.5-1.2
			c-4.4-11.7-12.1-20.4-22.8-26.5c-0.8-0.4-1.7-0.7-2.6-0.8c-2.1-0.4-3.7,0.8-5.2,1.9c-10.2,6.6-17.1,15.8-20.4,27.5
			c-0.4-0.4-0.8-0.8-1.2-1.1c-3.4-2.9-6.8-6-10.5-8.5c-7.3-5-15.2-8.1-24.2-6.9c-1.9,0.3-3.2,1.3-3.6,3c-1.6,7.4-1.7,14.8-0.1,22.1
			c1.6,7.7,5.4,14,11.3,19.2C124.6,242.5,127,245.6,128.9,249.3z"/>
		<path class="st2" d="M70,202.6c-5.8-0.9-11.5-1.6-17.2-2.8c-5.2-1.1-8.9-4.8-12.2-8.6c-5.4-6.6-8.3-14.3-10.3-22.5
			c-1.2-5.2-1.5-10.2-1.3-15.4c0-2.9,1.2-3.7,3.8-2.3c6.9,3.8,13.9,7.5,20.7,11.8c8.2,5.2,13.4,13.1,16.6,22.1
			c1.6,4.5,2.9,9,4.1,13.5c0.9,3.6,0.7,3.6-2.9,3.7c-0.4,0-0.8,0-1.1,0C70,202.3,70,202.4,70,202.6z"/>
		<path class="st2" d="M281.1,201.9c-6.2,0-6.5-0.3-5.2-4.6c2.1-7.2,4.2-14.2,7.9-20.8c3.4-6.2,8.1-11.1,14.3-14.7
			c5.7-3.3,11.5-6.6,17.3-9.9c0.4-0.3,0.9-0.5,1.3-0.8c2.8-1.3,3.8-0.8,4.1,2.3c0.5,7.5-1.1,14.7-3.4,21.9c-2,6.1-4.8,11.8-9,16.7
			c-4.1,4.6-9,7.7-15.1,8.5C288.8,201.2,284.2,201.6,281.1,201.9z"/>
		<path class="st2" d="M70.4,126.5c0.3-6.5,1.3-12.8,3.7-18.8c1.3-3.4,2.1-4.8,5.3-1.2c4.1,4.8,8.3,9.3,12.1,14.3
			c5.2,7,7.5,15,6.6,23.8c-0.3,3,0,6.2-0.1,9.3c0,1.3-0.4,2.6-0.5,4.1c-0.1,1.5-0.9,1.6-2.1,1.2c-2.1-0.8-4.4-1.6-6.4-2.6
			c-4.2-2.3-8.7-4.2-11.9-8.1c-3.2-3.7-4.6-8.2-5.6-13C70.8,132.5,70.7,129.4,70.4,126.5z"/>
		<path class="st2" d="M251.7,146.3c-0.1-6.1,0.3-11.9,2.8-17.5c1.3-2.9,2.8-5.7,4.6-8.2c3.6-4.8,7.5-9.4,11.5-13.9
			c2.8-3.2,3.8-3,5.4,0.9c2,5,2.9,10.2,3.3,15.5c0.4,4.8,0.1,9.4-0.8,14.2c-1.9,8.7-7.4,14.3-15.2,18c-2.6,1.3-5.4,2.5-8.2,3.6
			c-1.9,0.8-2.3,0.5-2.5-1.3C252.1,153.7,252,150,251.7,146.3z"/>
		<path class="st2" d="M175.4,291.2c-0.4-6.5-2-12.4-5.3-17.9c-0.4-0.8-0.4-1.9-0.7-2.8c-0.7-2.3-1.2-4.6-2.3-6.9
			c-2.6-6-6-11.7-8.1-17.9c-5.7-16.8-3.2-32.6,7.8-46.8c2-2.5,4.9-4.4,7.3-6.5c0.8-0.7,1.5-0.5,2.4,0c9.5,6.5,15.5,15.5,18.1,26.8
			c2.1,8.7,0.9,17.1-2.4,25.3c-2.9,7-5.7,14-8.5,21.1c-0.7,1.7-0.8,3.7-1.2,5.6c-0.1,0.7-0.3,1.2-0.5,1.7c-2.5,5.4-4.2,11-4.9,17
			C177.1,291,176.6,291.5,175.4,291.2z"/>
		<path class="st2" d="M154.9,258.4c-4.4-1.9-8.9-3.7-13.2-5.7c-0.5-0.3-0.9-0.8-1.2-1.3c-2.8-4.4-5.3-8.9-8.2-13.1
			c-1.2-1.9-3-3.4-4.6-4.9c-5.6-5.2-8.5-11.8-9.3-19.2c-0.3-2.8,0-5.6,0-8.3c0-0.7,0.3-1.2,0.4-2.3c2.9,0.9,5.8,1.6,8.5,2.8
			c8.1,3.7,14.7,9.5,20.5,16.2c0.3,0.4,0.4,1.1,0.4,1.6c-1.2,12.1,1.1,23.3,6.6,33.9C154.8,258,154.9,258.3,154.9,258.4z"/>
		<path class="st2" d="M197.1,256.2c1.1-2.6,2.1-5.3,3.2-7.8c3.3-8.1,4.5-16.4,3.6-25.2c-0.1-1.3,0.1-2.3,1.2-3.2
			c6.4-5.4,12.8-10.6,20.5-14.2c1.9-0.9,3.8-1.5,6-2.3c1.2,3.7,1.9,7.3,1.5,10.9c-0.9,7.7-4.2,14.2-10.1,19.3
			c-5.4,4.9-9.5,10.7-12.7,17.2c-0.3,0.5-0.8,1.1-1.3,1.1c-4,0.7-7.7,2-11.1,3.8C197.7,256.2,197.5,256.2,197.1,256.2z"/>
		<path class="st2" d="M185.6,290.6c0.5-2.3,0.9-4.2,1.5-6.1c2.4-7.5,6-14.3,12.6-19.1c3.8-2.8,8.1-4.1,12.7-4.9
			c8.2-1.6,16.6-3.3,25-4.6c-1.1,1.2-1.9,2.4-3,3.4c-4.1,3.7-9,6.2-14.3,7.9c-4.4,1.5-8.9,2.4-13.2,3.4c-9,2.3-14.8,7.8-18.1,16.3
			C188.3,288.5,187.7,290.1,185.6,290.6z"/>
		<path class="st2" d="M167,291.3c-1.9-0.5-2.3-1.7-2.6-2.9c-1.3-4-3.3-7.7-6.2-10.7c-2.8-2.8-6-4.5-9.9-5
			c-8.3-1.1-15.6-4.6-22.5-9.3c-3-2.1-6-4.5-8.9-6.8c0.1-0.1,0.1-0.4,0.3-0.5c2.4,0.4,4.8,0.7,7,1.1c9.9,1.9,19.5,4.9,27.9,10.3
			c7.3,4.6,12.4,10.9,14.3,19.5C166.6,288.4,166.7,289.7,167,291.3z"/>
	</g>
</g>
</svg>
