<?xml version="1.0" encoding="utf-8"?>
<!-- Generator: Adobe Illustrator 24.0.1, SVG Export Plug-In . SVG Version: 6.00 Build 0)  -->
<svg version="1.1" id="Calque_1" xmlns="http://www.w3.org/2000/svg" xmlns:xlink="http://www.w3.org/1999/xlink" x="0px" y="0px"
	 viewBox="0 0 669 669" style="enable-background:new 0 0 669 669;" xml:space="preserve">
<style type="text/css">
	.st0{fill:#FFFFFF;}
</style>
<g>
	<g>
		<path class="st0" d="M569.1,58.8c3.6,1.1,6.9,2.2,10.2,3.6c20.2,7.5,30.1,29.8,22.4,49.7s-30.7,29.8-50,20.4
			c-8-3.9-12.4-2.8-18.8,2.8c-34.5,30.4-69.3,60.2-103.8,90.9c-3.6,3.3-6.6,9.7-6.4,14.4c1.1,17.4-4.4,30.9-19.6,39.5
			c-14.1,8.3-28.4,6.9-41.4-3c-14.1-10.8-17.4-25.4-13-42c0.6-1.7,1.1-3.3,2.2-6.4c-11.9-9.1-23.7-18.5-36.2-26.8
			c-2.5-1.7-7.7-0.8-10.8,0.8c-13,6.6-25.4,6.1-38.4-0.6c-3.6-1.7-9.9-1.7-13,0.6c-36.2,25.4-72.1,51.1-107.7,77
			c-3,2.2-4.7,8.8-4.4,13.3c1.9,21.5-11.9,40.6-33.1,43.6c-19.9,3-39.5-11.9-42.3-32.6c-2.8-20.7,10.8-39.5,32-42.5
			c6.6-0.8,14.4-0.3,19.9,2.8c8.3,4.7,13.8,3,20.7-2.2c33.7-24.6,67.9-48.9,101.9-73.2c6.1-4.4,8.8-8.6,8-16.8
			c-2.2-23.2,15.7-41.7,37.8-41.4c22.1,0.6,39.5,19.6,36.7,42.5c-1.1,8.6,1.4,12.7,7.7,16.8c5.8,3.9,11.3,8,16.6,12.4
			c8.8,7.7,16.8,12.2,30.4,7.7c9.7-3,21.8,2.2,36.2,4.1c35.1-30.7,73.7-64.1,112.1-97.8c2.2-1.9,4.1-6.1,3.9-9.1
			c-1.7-30.1,4.1-38.7,33.7-49.4C565.5,58.8,567.1,58.8,569.1,58.8z M305.3,168.9c-0.3-11-9.4-19.6-20.7-19.3
			c-10.5,0.3-19.1,9.1-19.1,19.3c-0.3,11,8.8,19.9,20.2,19.9C296.8,188.8,305.6,180,305.3,168.9z M384.9,227.2
			c-11,0-20.2,9.1-19.9,20.2c0.3,11,9.4,19.6,20.4,19.3c10.8-0.3,19.1-8.6,19.1-19.3C404.8,236.1,395.9,227.2,384.9,227.2z
			 M566.6,78.1c-11-0.3-19.9,8.8-19.9,19.9c0,10.8,8,19.1,18.8,19.6c11.3,0.6,20.4-7.7,20.7-19.1C586.5,87.2,577.9,78.4,566.6,78.1z
			 M122.5,299c0-11.3-8.8-19.9-20.2-19.6c-10.5,0.3-19.1,8.6-19.3,19.1c-0.3,11,8.3,20.2,19.6,20.2C114,318.9,122.5,310.6,122.5,299
			z"/>
		<path class="st0" d="M72,611.1c-2.5-4.4-4.7-8.8-7.2-13.3c4.7-1.9,9.4-5.8,14.1-5.8c165.1-0.3,330.6-0.3,495.7,0
			c4.4,0,12.2,2.5,12.7,5c0.8,4.1-2.8,9.4-4.4,14.1C412.5,611.1,242.4,611.1,72,611.1z"/>
		<path class="st0" d="M483.2,398.4c0-53.9,0.3-107.4-0.3-161.3c-0.3-13,4.4-17.1,16.8-16.6c18.8,0.6,37.6,0.6,56.6,0
			c11-0.3,15.7,3.6,15.7,15.2c-0.3,108-0.3,216,0,323.9c0,11.3-4.4,15.7-15.5,15.5c-18.8-0.6-37.8-0.6-56.6,0
			c-12.4,0.6-17.1-4.1-16.8-16.8C483.5,505,483.2,451.7,483.2,398.4z M501.7,239.1c0,106,0,211,0,316.5c17.4,0,34.2,0,50.8,0
			c0-106,0-211,0-316.5C535.4,239.1,519.4,239.1,501.7,239.1z"/>
		<path class="st0" d="M218.3,426c0-44.7,0.3-89.2-0.3-133.9c-0.3-13.3,4.1-18.2,17.4-18c18.8,0.8,37.8,0.6,56.6,0
			c10.5-0.3,14.9,3.9,14.9,14.6c-0.3,90.6-0.3,181.2,0,271.7c0,9.9-3.6,14.4-13.8,14.1c-20.2-0.3-40.6-0.3-60.8,0
			c-11,0.3-14.4-5-14.4-15.2C218.6,515.2,218.3,470.8,218.3,426z M237.7,293.8c0,88.1,0,174.8,0,261.5c17.7,0,34.2,0,50.8,0
			c0-87.8,0-174.5,0-261.5C271.1,293.8,254.8,293.8,237.7,293.8z"/>
		<path class="st0" d="M174.7,466.4c0,30.9-0.3,61.6,0.3,92.5c0.3,11.6-3.6,16.8-15.7,16.3c-19.3-0.6-38.7-0.6-58,0
			c-10.5,0.3-15.2-3.6-15.2-14.4c0.3-63,0.3-125.9,0-189.2c0-9.9,3.9-14.4,13.8-14.4c20.2,0.3,40.6,0.3,60.8,0
			c11-0.3,14.4,5,14.4,15.2C174.4,403.7,174.7,434.9,174.7,466.4z M105.4,376.6c0,60.5,0,119.6,0,178.9c17.4,0,34,0,50.8,0
			c0-60.2,0-119.3,0-178.9C139.1,376.6,122.8,376.6,105.4,376.6z"/>
		<path class="st0" d="M350.9,479.9c0-26.2,0.3-52.5-0.3-78.7c-0.3-11.6,3.6-16.8,15.7-16.6c19.3,0.6,38.7,0.3,58,0
			c10.2-0.3,15.2,3.6,14.9,14.4c-0.3,53.9-0.3,107.7,0,161.6c0,9.9-3.6,14.4-13.8,14.4c-20.2-0.3-40.6-0.3-60.8,0
			c-10.8,0.3-14.4-4.7-14.4-15.2C351.2,533.2,350.9,506.7,350.9,479.9z M369.7,555.8c17.7,0,34,0,50.8,0c0-51.1,0-101.1,0-151.6
			c-17.4,0-33.7,0-50.8,0C369.7,454.8,369.7,504.7,369.7,555.8z"/>
	</g>
</g>
</svg>
