<?xml version="1.0" encoding="utf-8"?>
<!-- Generator: Adobe Illustrator 24.0.1, SVG Export Plug-In . SVG Version: 6.00 Build 0)  -->
<svg version="1.1" id="Calque_1" xmlns="http://www.w3.org/2000/svg" xmlns:xlink="http://www.w3.org/1999/xlink" x="0px" y="0px"
	 viewBox="0 0 350 350" style="enable-background:new 0 0 350 350;" xml:space="preserve">
<style type="text/css">
	.st0{fill:#FE7262;}
	.st1{fill:#F14E1E;}
	.st2{fill:#A259FE;}
	.st3{fill:#0BCE83;}
	.st4{fill:#1BBCFD;}
</style>
<g>
	<g>
		<path class="st0" d="M175.9,28.2c17.7,0,35.3-0.5,53,0c21.4,0.6,40.9,18.5,45,39.6c5.1,26-11.5,51.5-36.7,57.5
			c-2.4,0.6-4.9,0.9-7.3,1.4c-4.3,0.1-8.6,0.2-12.8,0.4c-13.7,0-27.4,0-41.1,0.1c-0.1-0.2-0.1-0.3-0.1-0.5
			C175.9,93.8,175.9,61,175.9,28.2z"/>
		<path class="st1" d="M175.9,28.2c0,32.8,0,65.6,0,98.4c-17.3,0-34.6,0-51.9,0c-1,0.1-2.1,0.1-3.1,0.2c-0.6,0.1-1.2,0.1-1.8,0.2
			c-1.5-0.6-2.9-1.4-4.4-1.8c-24.6-6.4-40.1-29-36.7-54.8C81.4,44.8,103.4,28,126.6,28C143,28,159.5,28.1,175.9,28.2z"/>
		<path class="st2" d="M119.1,127c0.6-0.1,1.2-0.1,1.8-0.2c1-0.1,2.1-0.1,3.1-0.2c17.3,0,34.6,0,51.9,0c0,0.2,0,0.4,0.1,0.5
			c0,13.9,0.1,27.9,0.1,41.8c0,4.7,0,9.5,0,14.2c-0.1,12.2-0.1,24.5-0.2,36.7c0,1.8-0.1,3.6-0.2,5.4c-17.9,0-35.8,0-53.7,0
			c-22.9-3.2-39.4-18-43.9-40.1c-4.1-20,5.2-41.3,24.2-51.9C107.6,130.4,113.6,129,119.1,127z"/>
		<path class="st3" d="M122.2,225.3c17.9,0,35.8,0,53.7,0c0,18,0.7,36-0.1,53.9c-1.1,27.2-28.9,48.9-55.8,44.4
			c-23.4-3.9-39.8-21.1-42.4-44.6c-2.8-25.2,16.6-49.8,41.6-53.1C120.3,225.8,121.2,225.5,122.2,225.3z"/>
		<path class="st4" d="M176.2,183.1c0-4.7,0-9.5,0-14.2c0.4-1,0.8-2,1.1-3.1c2.6-11.5,8.5-21,17.7-28.5c6.6-5.3,14.3-8.1,22.2-10.3
			c4.3-0.1,8.6-0.2,12.8-0.4c20.7,3.1,35.3,13.9,42.3,33.9c10.7,30.3-12.2,63.3-44.2,64.7c-26.4,1.2-48-18.4-51.1-41
			C176.9,183.8,176.4,183.5,176.2,183.1z"/>
		<path class="st0" d="M124,126.5c-1,0.1-2.1,0.1-3.1,0.2C122,126.7,123,126.6,124,126.5z"/>
	</g>
</g>
</svg>
