<?xml version="1.0" encoding="utf-8"?>
<!-- Generator: Adobe Illustrator 24.0.1, SVG Export Plug-In . SVG Version: 6.00 Build 0)  -->
<svg version="1.1" id="Calque_1" xmlns="http://www.w3.org/2000/svg" xmlns:xlink="http://www.w3.org/1999/xlink" x="0px" y="0px"
	 viewBox="0 0 669 669" style="enable-background:new 0 0 669 669;" xml:space="preserve">
<style type="text/css">
	.st0{fill:#FFFFFF;}
</style>
<g>
	<g>
		<path class="st0" d="M334.3,612.5c-36.1,0-72.2-0.1-108.3,0.1c-13.9,0.1-24.7-5.4-33.3-16.1c-39.9-49.8-80-99.5-120-149.2
			c-5.5-6.8-11.1-13.6-16.4-20.4c-7.4-9.5-10-20.3-7.3-32.1c12.7-55.2,25.4-110.4,38-165.6c3.6-15.9,7.3-31.7,10.9-47.6
			c2.8-12,9.8-20.8,20.8-26.1c39.3-18.9,78.7-37.6,118.1-56.5c23.7-11.3,47.5-22.7,71.3-34.1c2.8-1.3,5.8-2.7,8.5-4.1
			c11.7-5.8,23.5-5.8,35.2-0.2c20.5,9.8,41,19.5,61.5,29.3c44.8,21.3,89.5,42.8,134.4,64c13.1,6.2,20.8,16,24.1,30.1
			c15.9,69.9,32.1,139.8,48.3,209.7c2.9,12.6,0.3,23.8-7.8,33.8c-21.3,26.6-42.7,53.1-64,79.6c-24,29.8-48,59.6-71.9,89.4
			c-8.5,10.6-19.2,16-32.8,15.9C407,612.5,370.7,612.5,334.3,612.5L334.3,612.5z M489.4,347.6c-0.1-19-2.8-36.5-8.1-52
			c-4.1-12.1-9.6-23.6-16.5-34.4c-0.6-0.9-1.2-2.8-0.8-3.1c2.7-2.1,3.4-5.1,4.4-8.2c0.3-1.1,1.3-2.1,2.2-2.7
			c6.3-4.4,12.6-8.6,18.9-12.8c3.7-2.6,7.7-4.9,11.3-7.7c3.3-2.6,4.6-6.5,4.2-10.7c-0.8-9-11.4-13.1-19.3-7.3
			c-3.5,2.6-6.4,5.9-9.6,8.9c-5.3,5-10.5,10.3-16.1,15c-1.7,1.5-4.4,1.6-6.6,2.3c-1.3,0.4-3,0.3-3.9,1.1c-2.3,2.1-3.8,1.3-5.8-0.6
			c-16.9-17-36.7-29.3-59.3-37.2c-10.8-3.7-21.8-6.4-33.2-7.4c-2.6-0.2-4.2-0.9-4-4c0.1-1-0.7-2.3-1.5-3.1c-2-2.1-2.9-4.6-2.7-7.4
			c0.7-7.9,1.7-15.7,2.3-23.6c0.3-4.7,0.8-9.7,0-14.4c-0.9-5.6-6.1-9-11.3-8.9c-5.1,0.2-9.9,4-10.9,9.6c-0.6,3.1-0.6,6.5-0.3,9.7
			c0.7,7.5,1.9,15,2.7,22.5c0.4,4.1,0.7,8.3-2.1,12.1c-1.1,1.3-1.2,3.4-2.1,5c-0.4,0.9-1.3,1.7-2.2,2.2c-0.8,0.4-1.8,0.3-2.7,0.4
			c-17.8,2-34.6,6.9-50.7,14.8c-15.6,7.7-29.5,17.7-41.6,30.2c-1.7,1.7-3,2.1-4.9,0.5c-0.8-0.7-2.1-1.2-3-1c-3.3,0.6-6-0.6-8.2-2.7
			c-6-5.8-11.9-11.7-18-17.5c-2.8-2.7-5.8-5.4-9-7.3c-4.5-2.7-10.3-1.8-13.8,1.5c-3.6,3.4-4.4,7.7-2.7,12.1c0.9,2.5,2.7,5,4.7,6.7
			c3,2.6,6.6,4.4,10,6.6c5.7,3.7,11.4,7.4,17,11.2c2.8,1.9,4.7,4.4,5.2,7.9c0.2,1.1,0.9,2.3,1.8,3c2,1.5,1.7,2.8,0.6,4.7
			c-2.5,4-5,8.1-7.1,12.3c-14.5,28.3-19.8,58.3-15.9,89.9c0.3,2.2-0.4,3.1-2.4,3.6c-0.9,0.2-2.2,0.6-2.7,1.3
			c-3.1,4.9-8.3,5.8-13.3,6.4c-6.9,0.8-13.9,1.2-20.8,2.2c-4.1,0.7-8.4,1.8-12.1,3.7c-4.2,2.2-5.5,6.6-4.9,11.3
			c0.7,4.4,3.4,7.3,7.5,8.5c2.5,0.7,5.4,1,7.9,0.5c4-0.8,7.8-2.5,11.7-3.7c7-2.2,13.9-4.7,21-6.6c2.1-0.6,4.6,0.4,7,0.8
			c1.3,0.2,2.8,1,4,0.7c2.8-0.7,3.7,0.6,4.5,3c5.2,15.1,12.6,29,22.2,41.7c11.8,15.6,25.9,28.7,42.6,38.9c2.2,1.3,2.7,2.6,1.6,4.9
			c-0.6,1.1-0.6,2.7-0.3,4c0.7,2.7,0.6,5.2-0.8,7.5c-4.2,7.1-8.6,14.1-12.8,21.3c-2,3.4-4.2,6.9-5.5,10.6c-2.1,6,0.9,12.5,6,14.6
			c5.6,2.3,12.5-0.1,15.5-5.9c1.6-3.1,2.8-6.5,4-9.8c2.6-7.1,5-14.4,7.7-21.6c1.3-3.4,3.2-6.3,7.1-7.4c0.8-0.2,1.7-1.1,1.9-1.8
			c1.2-3.4,3.2-2.9,5.9-1.9c13.8,5.1,28.1,7.9,42.8,8.7c20.9,1.1,41.2-1.8,60.9-8.9c1.8-0.7,2.7-0.1,3.6,1.4c0.6,1,1.4,2.2,2.3,2.6
			c3.9,1.3,5.8,4.2,7.2,7.7c1.7,4.1,3.3,8.3,4.8,12.5c2.1,5.7,3.8,11.4,6,17.1c1.6,3.9,4.6,6.5,8.8,7.6c4,1.1,7.7,0.3,10.6-2.6
			c3.5-3.5,4.5-7.9,3-12.3c-1.5-4.1-3.9-7.8-6.1-11.6c-4.1-7-8.5-13.8-12.3-20.9c-1-1.9-0.4-4.6-0.6-6.9c-0.1-1.2,0.2-2.5-0.2-3.5
			c-1.1-2.3-0.6-3.6,1.7-4.9c13.5-8.2,25.2-18.5,35.5-30.4c13.2-15.3,23.1-32.6,29.5-51.8c0.7-2.1,1.7-2.5,3.7-2.1
			c1.1,0.2,2.6,0.2,3.4-0.4c2.8-1.8,5.8-2,8.8-1c7.6,2.5,15.1,5.1,22.7,7.6c3.5,1.1,6.9,2.3,10.4,2.9c8.1,1.3,14.9-5,13.9-12.9
			c-0.7-5.4-4.2-8.7-9.3-10.1c-3.9-1-7.9-1.3-11.8-1.8c-7.4-1-14.7-1.9-22.1-2.9c-3-0.4-5.3-2-7.2-4.4c-0.8-1.1-2.3-1.9-3.6-2.3
			c-1.7-0.6-2.2-1.5-2.1-3.3C488.7,357.1,489.1,350.9,489.4,347.6z"/>
		<path class="st0" d="M450.9,386.4c-9.8,26.2-26,46.8-49.6,62.2c-1.3-3.1-2.5-5.7-3.5-8.3c-6.7-16.1-13.4-32.3-20-48.5
			c-0.9-2.2-1.5-4.7-1.2-7c0.6-6.2,6-9.9,12.8-9c6.3,0.9,12.5,2.1,18.7,3.1c13.4,2.2,26.8,4.5,40.2,6.8
			C448.9,385.8,449.7,386,450.9,386.4z"/>
		<path class="st0" d="M247.8,256c2.9-2.6,5.4-5,8-7.1c17.5-14.4,37.5-23.2,59.9-26.6c3.7-0.6,3.9-0.4,3.6,3.5
			c-0.8,14.9-1.6,29.9-2.5,44.8c-0.3,5-0.3,10.1-1.3,15c-1.6,8.2-9.4,11.6-16.4,7c-8.9-5.9-17.5-12.2-26.2-18.4
			c-7.5-5.3-15-10.6-22.5-16C249.7,257.7,249,257,247.8,256z"/>
		<path class="st0" d="M229.2,279.7c2.5,2.2,4.8,4.2,7.1,6.3c12.6,11.2,25.1,22.5,37.6,33.7c1.2,1.1,2.3,2.2,3.2,3.5
			c4.4,5.6,2.7,13.3-3.9,16.1c-4.9,2.1-10.2,3.4-15.4,4.9c-14.4,4.2-28.8,8.3-43.2,12.5c-2.2,0.7-3.2,0.4-3.4-2.2
			c-2-25.7,3.4-49.7,16.3-72.1C228,281.4,228.5,280.7,229.2,279.7z"/>
		<path class="st0" d="M439.9,279.4c3.2,6.6,6.5,12.6,9,18.9c6.5,15.9,9.4,32.4,9.2,49.6c-0.1,2.1-0.3,4.1-0.4,6.1
			c-0.1,2.3-1,2.8-3.2,2.2c-13.9-4.1-27.9-8-41.8-12.1c-4.1-1.2-8.2-2.3-12.3-3.6c-1.6-0.5-3.2-1-4.7-1.7
			c-6.9-3.3-8.7-11.2-3.4-16.7c4.7-5,10.1-9.4,15.2-14c10.1-9,20.1-18,30.2-27C438.2,280.8,438.7,280.4,439.9,279.4z"/>
		<path class="st0" d="M294.9,461.5c2.6-4.7,4.9-9,7.3-13.3c7.4-13.3,14.8-26.6,22.1-40c2.5-4.6,5.9-7.4,11.4-6.8
			c4.3,0.4,7,3.2,9,6.8c9.6,17.1,19,34.3,28.5,51.5c0.3,0.6,0.4,1.2,0.7,2.2C347.6,470.2,321.5,470.2,294.9,461.5z"/>
		<path class="st0" d="M267.8,448.3c-23.2-15.2-39.5-35.6-49.3-61.7c1.5-0.4,2.6-0.7,3.6-0.8c18.3-3.1,36.6-6.3,55-9.3
			c0.4-0.1,0.7-0.1,1.1-0.2c11.2-1.5,17.1,6,12.9,16.5c-7.3,17.8-14.7,35.6-22.1,53.3C268.7,446.7,268.3,447.3,267.8,448.3z"/>
		<path class="st0" d="M420.3,256.5c-0.7,0.6-1.4,1.2-2.2,1.8c-15.4,10.9-30.7,21.7-46,32.6c-1.1,0.8-2.3,1.6-3.6,2.2
			c-6.4,3.4-14.1-0.2-15.2-7.4c-0.7-4.4-0.8-8.9-1.1-13.3c-0.9-16-1.8-31.9-2.7-47.9c-0.2-2.8,1.6-2.5,3.2-2.2
			c10.2,1.6,20,4.3,29.5,8.3c13.4,5.6,25.5,13.4,36.1,23.3c0.6,0.6,1.2,1.2,1.7,1.8C420.2,255.8,420.2,256,420.3,256.5z"/>
		<path class="st0" d="M334.6,325.1c7.4-2.4,11.3,1.7,15.7,6.9c4.7,5.4,5.3,10.3,3.8,17c-1.5,6.8-4.6,10.4-10.8,13.5
			c-6.4,3.1-11.3,3-17.8,0c-6.5-3.1-9.3-7.1-10.9-14c-1.6-6.8-0.3-11.3,3.9-16.5C323,326.6,327.2,322.7,334.6,325.1z"/>
	</g>
</g>
</svg>
