<?xml version="1.0" encoding="utf-8"?>
<!-- Generator: Adobe Illustrator 24.0.1, SVG Export Plug-In . SVG Version: 6.00 Build 0)  -->
<svg version="1.1" id="Calque_1" xmlns="http://www.w3.org/2000/svg" xmlns:xlink="http://www.w3.org/1999/xlink" x="0px" y="0px"
	 viewBox="0 0 669 669" style="enable-background:new 0 0 669 669;" xml:space="preserve">
<style type="text/css">
	.st0{fill:#FFFFFF;}
</style>
<g>
	<g>
		<path class="st0" d="M337.9,614c-9.4,0-16.6,0.5-23.8-0.1c-9.6-0.8-19.1-2.1-28.6-3.7c-8.7-1.4-17.3-3-25.8-5.3
			c-7.9-2.1-15.9-4.6-23.4-7.9c-15-6.8-30.2-13.3-44.2-21.7c-13.2-7.9-25.3-17.9-37.6-27.3c-6-4.6-11.8-9.6-17-15.1
			c-7.2-7.5-14-15.3-20.5-23.4c-6.4-8-12.6-16.3-18-25.1c-6.4-10.5-12.3-21.4-17.6-32.5c-4.7-9.9-9.3-20-12.1-30.5
			c-4.3-16.3-8.6-32.8-10-49.5c-1.9-21.6-1.7-43.5-1.1-65.3c0.3-10.8,3.1-21.6,5.2-32.3c1.5-7.8,3.1-15.6,5.7-23
			c3.9-11.1,7.8-22.4,13.3-32.7c8.9-16.7,18.7-33.1,29-49c5.2-8.1,12.3-15,18.8-22.2c13.6-15.1,28.7-28.6,45.3-40.1
			c10.6-7.4,21.9-14,33.3-19.9c10.8-5.6,22-10.9,33.5-14.7c13.5-4.4,27.7-7,41.5-10.5c26.8-6.8,54-3.2,81.1-3.8
			c6.1-0.1,12.2,1.6,18.3,2.9c8.8,1.8,17.5,3.7,26.1,6c8.4,2.3,17,4.4,24.9,7.9c15,6.6,30,13.6,44.3,21.5
			c13.7,7.6,26.5,16.8,38,27.6c5.5,5.2,11.7,9.7,16.9,15.2c7.1,7.4,13.8,15.1,20.1,23.1c6.5,8.2,12.9,16.5,18.3,25.4
			c6.3,10.3,12.1,21.1,17.3,32.1c4.8,10,9.1,20.4,12.5,31c3.5,11.1,5.6,22.6,8.3,33.9c6.5,26.9,3.6,54.3,3.8,81.5
			c0.1,7.5-2.4,15-4.1,22.4c-2.4,10.7-4.1,21.7-7.9,32c-5.9,16.1-12.7,31.9-20.4,47.2c-6.1,12-13.8,23.1-21.5,34.2
			c-4.8,7-10.5,13.5-16.2,19.8c-14.9,16.4-30.9,31.7-49.3,43.8c-15.2,10-31.1,19.4-47.8,26.7c-15.4,6.8-32.1,11-48.4,15.5
			c-8.1,2.3-16.9,2.1-25,4.4C360.7,615.8,348.1,612.7,337.9,614z M587.9,336.8c-0.9-68.6-24.2-127.9-71.6-176.7
			c-49.2-50.7-110.6-76.7-180.8-76.6c-73.6,0.1-137,28.2-186.8,82.9c-43.1,47.2-65.4,103.8-65.4,167.7c0,76.1,28.6,140.4,85.7,191.2
			c47.4,42.3,103.9,63.3,166.8,63.2c68.7-0.2,129-25,177.9-73.9C562.6,465.5,586.8,405.4,587.9,336.8z"/>
		<path class="st0" d="M335.6,457c-33.7-0.8-62.9-12.3-86.7-36.5c-23-23.5-34.5-52.2-34.6-84.5c-0.1-29.8,9.9-57,30-79.6
			c24.2-27.3,55.1-41.2,91.4-41.2c33.1,0,61.9,11.9,85.5,35.6c23.5,23.5,35.1,52.4,35.4,85.1c0.2,29.8-9.6,57.1-29.8,79.6
			C399.2,446.3,368.4,456,335.6,457z M353,336.1c-0.6-10.4-8-16.8-17.4-17.9c-8.1-0.9-17.9,9.2-17.6,17.8
			c0.4,10.5,8.1,16.9,17.4,17.9C343.6,354.7,353,344.7,353,336.1z"/>
		<path class="st0" d="M388,117.3c0-9.9,9.1-15.8,18.3-12.2c10,3.9,20.5,6.8,30.2,11.4c10.5,5,20.5,11.2,30.5,17.2
			c19.1,11.5,35.3,26.7,50,43.2c13.4,15,25.2,31.4,33.4,50.1c5.4,12.3,10.6,24.7,15.4,37.2c2.8,7.3-1.6,15.2-9,17.4
			c-6.7,2-14.4-3-16.9-9.8c-4.2-11.2-8.3-22.6-13.9-33.1c-6.6-12.4-13.7-24.8-22.4-35.7c-8.6-11-18.9-20.9-29.5-30
			c-9.7-8.4-20.5-15.7-31.5-22.5c-8.9-5.4-18.7-9.3-28.2-13.6c-6.3-2.8-12.8-5.4-19.2-7.8C389.7,127,387.6,123,388,117.3z"/>
		<path class="st0" d="M105,406.8c0-7.9,5.9-15,11.1-15.8c6.1-1,13,4.7,14.9,10.2c5.5,15.9,12.3,31.2,21,45.8
			c8.6,14.3,18.6,27.3,30.1,39.1c14.5,14.9,30.8,27.6,49.3,37.2c9.9,5.1,19.9,9.9,29.9,14.5c4.7,2.1,9.9,3.1,14.4,5.5
			c5.4,2.9,8.7,9.2,7,13.5c-2.1,5.6-6.2,10-12.2,11.2c-2.9,0.6-6.5-0.6-9.4-1.9c-14.2-6.1-28.7-11.8-42.4-18.8
			c-24.8-12.5-45.5-30.5-63.9-51c-7.6-8.4-13.8-18.1-20.6-27.3c-11.1-15-18.3-32-25.3-49.1C107.1,415,105.9,409.9,105,406.8z"/>
		<path class="st0" d="M391.6,141c3.3,1,8.9,2.5,14.4,4.6c23.3,8.6,44.4,21,62.9,37.3c10.8,9.5,20.2,20.9,29.4,32.2
			c10.3,12.6,17.8,27,24.1,42c3.2,7.6,5.9,15.4,8.4,23.2c1.3,3.9-4.3,12-8.8,13.6c-6.6,2.4-13.3,0.5-16.1-5.3
			c-2.9-6.1-4.9-12.6-7.7-18.8c-3.5-7.8-7-15.6-11.1-23c-8.8-15.7-19.8-30.1-33.7-41.5c-12.2-9.9-25.4-18.9-39-26.8
			c-9.5-5.5-20.5-8.4-30.7-12.6c-6.2-2.6-9.4-9.4-7.8-15.8C377.3,145.3,383.5,141,391.6,141z"/>
		<path class="st0" d="M140.9,393.4c1.1-6.7,5.2-12.4,10.5-13.4c7.1-1.3,14.1,3,16.7,9.2c4.8,11.9,9.4,24.1,15.5,35.4
			c8.7,16.2,20,30.7,34.2,42.3c12.1,9.8,25.2,18.6,38.6,26.5c8.3,4.9,18.1,7.3,27.4,10.6c6.6,2.3,11.3,11.3,9.2,18.1
			c-2,6.2-10.9,9.5-18,7.5c-15.8-4.5-30.6-11.3-44.5-19.9c-17.7-10.9-34.1-23.5-47.2-39.9c-6.8-8.6-14.2-16.9-19.8-26.2
			c-6.3-10.4-11.2-21.8-16.3-32.9C144.5,405.1,142.9,399.2,140.9,393.4z"/>
		<path class="st0" d="M492.2,292.4c-0.2,6.7-5,13-10.4,13.6c-8.3,0.8-13.4-2.8-15.8-10.1c-6-18-14.8-34.3-27.2-48.8
			c-10.8-12.7-23.6-22.9-38.1-30.6c-8.8-4.7-18.4-7.8-27.7-11.5c-6-2.4-9.1-10.2-6.9-17.6c1.5-5,9.5-9.4,14.7-8
			c20.6,5.3,38.7,15.4,55.5,28.3c13.5,10.3,24.7,22.7,34.2,36.6c5.2,7.5,9.3,15.8,13.3,24c3,6,5.2,12.5,7.6,18.8
			C492.1,288.7,492,290.6,492.2,292.4z"/>
		<path class="st0" d="M290.6,493c-6-2-12.3-3.3-17.8-6.2c-11.9-6.2-23.9-12.4-34.8-20c-12.4-8.7-23.4-19.2-32-31.9
			c-5.4-7.9-11.2-15.7-15.5-24.1c-4.6-8.8-8-18.2-11.2-27.6c-1.8-5.1,5.7-13.7,11.4-14.1c7.8-0.5,13.9,3.6,16.3,11.2
			c5.5,16.7,14.2,31.6,25.6,45c13.5,15.7,29.9,27.2,48.5,35.8c4.7,2.2,9.5,4.2,14.4,5.8c6,2,8.9,6.9,9.1,12.1
			c0.2,5.1-2.7,10.1-7.9,12.6c-1.7,0.8-3.9,0.5-5.8,0.7C290.8,492.4,290.7,492.7,290.6,493z"/>
	</g>
</g>
</svg>
