<?xml version="1.0" encoding="utf-8"?>
<!-- Generator: Adobe Illustrator 24.0.1, SVG Export Plug-In . SVG Version: 6.00 Build 0)  -->
<svg version="1.1" id="Calque_1" xmlns="http://www.w3.org/2000/svg" xmlns:xlink="http://www.w3.org/1999/xlink" x="0px" y="0px"
	 viewBox="0 0 458 350" style="enable-background:new 0 0 458 350;" xml:space="preserve">
<style type="text/css">
	.st0{fill:#FFFFFF;}
</style>
<g>
	<g>
		<path class="st0" d="M224.4,265.4c-51.9-0.9-101-15.5-143.8-48.7c-12.9-10.1-24.4-21.6-34.4-34.6c-4.6-6-4.5-12.8,0.1-18.6
			c21.7-27.2,48.5-47.9,80.3-62C162,85.7,199.3,78,237.9,80.3c48.6,3,93.8,17.2,132.9,47.6c15.1,11.7,28.2,25.3,39.7,40.6
			c2.4,3.2,2.2,5.5-0.2,8.7c-27.5,37.1-63.9,61.8-107.6,76C278.4,261.3,251.6,265.4,224.4,265.4z M295.4,172.9
			c0-38.7-30.5-69.2-69.1-69.2c-38.3,0-68.9,30.5-69.1,68.8c-0.2,38.3,30.8,69.6,69,69.6C264.6,242.2,295.4,211.4,295.4,172.9z"/>
		<path class="st0" d="M226.5,210.4c-21,0.1-37.5-16.3-37.6-37.2c-0.1-21,16.7-38.1,37.4-38.1c20.6-0.1,37.8,17.2,37.8,37.9
			C264,193.8,247.4,210.3,226.5,210.4z"/>
	</g>
</g>
</svg>
