<?xml version="1.0" encoding="utf-8"?>
<!-- Generator: Adobe Illustrator 24.0.1, SVG Export Plug-In . SVG Version: 6.00 Build 0)  -->
<svg version="1.1" id="Calque_1" xmlns="http://www.w3.org/2000/svg" xmlns:xlink="http://www.w3.org/1999/xlink" x="0px" y="0px"
	 viewBox="0 0 350 350" style="enable-background:new 0 0 350 350;" xml:space="preserve">
<style type="text/css">
	.st0{fill:#2AA4FE;}
</style>
<g>
	<g>
		<path class="st0" d="M176.7,202.3c12.9-13,25.6-26,38.4-38.8c19.3-19.3,38.6-38.7,58-57.9c8-7.9,18.3-8.6,27.2-2.1
			c8.2,5.9,10.9,16.7,6.4,25.8c-1.1,2.2-2.7,4.3-4.4,6C265.6,172,229,208.6,192.4,245.2c-10.5,10.5-21.8,10.5-32.4-0.1
			c-36.6-36.5-73-73-109.6-109.5c-6.1-6.1-8.2-13.3-5.8-21.5c2.5-8.5,8.8-13.3,17.3-14.8c7.1-1.3,13,1.8,18,6.7
			c17.6,17.5,35.1,35.1,52.7,52.6c13.7,13.7,27.4,27.3,41,40.9C174.4,200.4,175.3,201.1,176.7,202.3z"/>
	</g>
</g>
</svg>
