<?xml version="1.0" encoding="utf-8"?>
<!-- Generator: Adobe Illustrator 24.0.1, SVG Export Plug-In . SVG Version: 6.00 Build 0)  -->
<svg version="1.1" id="Calque_1" xmlns="http://www.w3.org/2000/svg" xmlns:xlink="http://www.w3.org/1999/xlink" x="0px" y="0px"
	 viewBox="0 0 350 350" style="enable-background:new 0 0 350 350;" xml:space="preserve">
<g>
	<g>
		<path d="M111,139.7c0-26.3,0.2-52.7-0.1-79c-0.2-15.2,16.7-33,32.9-32.9c44.5,0.4,89,0.3,133.5,0.1c14.4-0.1,23.9,7.3,30.7,19.1
			c3.6,6.3,5.2,13.1,5.2,20.7c-0.3,49.2-0.1,98.3-0.2,147.5c0,14-7,24.2-18.2,31.9c-5.4,3.7-11.2,5-17.7,5
			c-44.5-0.1-89-0.3-133.5,0.1c-14.1,0.1-32.5-15.7-32.5-32.4C111,193,111,166.4,111,139.7z M285,140.1c0-24.5,0-49,0-73.5
			c0-1.9-0.3-4-1.1-5.7c-2.7-5.8-8-7-13.7-7c-38.1,0-76.3,0.1-114.4-0.1c-13.4-0.1-18.6,3.4-18.7,18.6c-0.1,37.5,0,75,0,112.4
			c0,8.3-0.1,16.7,0,25c0.1,7.6,3.5,13.6,8.4,14.8c3,0.7,6.2,1.1,9.3,1.2c15.7,0.1,31.3,0.1,47,0.1c22.5,0,45,0.1,67.5-0.1
			c10-0.1,16.2-3.7,15.9-15.8C284.6,186.8,285,163.5,285,140.1z"/>
		<path d="M151.5,324c-26.5,0-53-0.3-79.5,0.1c-14.5,0.2-27.6-12.6-31.7-23.9c-0.5-1.4-0.4-3-0.4-4.4c0-59.8-0.2-119.6,0.1-179.4
			c0.2-11.4,8.2-18.5,17-24.3c8.2-5.4,17.8-5.7,27.3-5c6.8,0.5,12.1,7.7,11.8,14.7c-0.2,5.6-6,13.3-13.5,12.3
			c-6-0.8-12.3-0.1-15.4,6.3c-1.4,3-2.1,6.6-2.1,10c-0.1,50.5-0.2,101,0,151.5c0,11.7,4.6,16.2,16.4,16.1c46.5-0.1,93,0,139.5,0
			c12,0,16.1-4.1,16.1-16c0-6.4,3.6-12.3,8.4-13.8c5.9-1.9,13,0.5,16.8,5.6c0.7,0.9,1.3,1.9,1.6,3c5.3,19-7,40.9-26.1,46.3
			c-1.9,0.5-3.8,0.9-5.8,0.9C205.2,324,178.3,324,151.5,324z"/>
	</g>
</g>
</svg>
