<?xml version="1.0" encoding="utf-8"?>
<!-- Generator: Adobe Illustrator 24.0.1, SVG Export Plug-In . SVG Version: 6.00 Build 0)  -->
<svg version="1.1" id="Calque_1" xmlns="http://www.w3.org/2000/svg" xmlns:xlink="http://www.w3.org/1999/xlink" x="0px" y="0px"
	 viewBox="0 0 350 350" style="enable-background:new 0 0 350 350;" xml:space="preserve">
<style type="text/css">
	.st0{fill-rule:evenodd;clip-rule:evenodd;fill:#FFFFFF;}
</style>
<path class="st0" d="M175,45.8c-73.2,0-132.5,59.3-132.5,132.5c0,58.6,37.9,108.2,90.6,125.7c6.6,1.2,9.1-2.8,9.1-6.3
	c0-3.1-0.2-13.6-0.2-24.7c-33.3,6.1-41.9-8.1-44.6-15.6c-1.5-3.8-8-15.6-13.6-18.7c-4.6-2.5-11.3-8.6-0.2-8.8
	c10.4-0.2,17.9,9.6,20.4,13.6c11.9,20,31,14.4,38.6,10.9c1.2-8.6,4.6-14.4,8.4-17.7c-29.5-3.3-60.3-14.7-60.3-65.4
	c0-14.4,5.1-26.3,13.6-35.6c-1.3-3.3-6-16.9,1.3-35.1c0,0,11.1-3.5,36.4,13.6c10.6-3,21.9-4.5,33.1-4.5c11.3,0,22.5,1.5,33.1,4.5
	c25.3-17.2,36.4-13.6,36.4-13.6c7.3,18.2,2.7,31.8,1.3,35.1c8.4,9.3,13.6,21,13.6,35.6c0,50.9-31,62.1-60.5,65.4
	c4.8,4.1,8.9,12.1,8.9,24.5c0,17.7-0.2,32-0.2,36.4c0,3.5,2.5,7.6,9.1,6.3c52.3-17.6,90.3-67.3,90.3-125.7
	C307.5,105.1,248.2,45.8,175,45.8z"/>
</svg>
