<?xml version="1.0" encoding="utf-8"?>
<!-- Generator: Adobe Illustrator 24.0.1, SVG Export Plug-In . SVG Version: 6.00 Build 0)  -->
<svg version="1.1" id="Calque_1" xmlns="http://www.w3.org/2000/svg" xmlns:xlink="http://www.w3.org/1999/xlink" x="0px" y="0px"
	 viewBox="0 0 350 350" style="enable-background:new 0 0 350 350;" xml:space="preserve">
<style type="text/css">
	.st0{fill:#2AA4FE;}
</style>
<g>
	<g>
		<path class="st0" d="M175.7,43.1c26.5,0,53-0.4,79.5,0.1c21.1,0.4,37.2,10,46.9,29.3c1.4,2.8,2.7,5.8,3.3,8.8
			c1.4,7.3,3.3,14.6,3.4,22c0.3,47.8,0.6,95.7-0.1,143.5c-0.2,17.4-4.2,34.3-18.3,46.8c-8.9,7.9-19.4,12.5-31.1,13.1
			c-16.5,0.8-32.9,1.1-49.4,1.2c-34.3,0.2-68.7,0.2-103,0c-11.3-0.1-22.7-0.7-33.1-5.9c-18.8-9.3-29.4-24.5-29.5-45.5
			c-0.4-53.5,0.2-107-0.2-160.5c-0.4-27,19.7-52.2,51.6-52.8C122.4,42.8,149,43.1,175.7,43.1z M149.9,254.6c10.7,0,20.9,0,31.7,0
			c0-2.5,0-4.6,0-6.7c0.1-17.5-0.2-35,0.4-52.5c0.4-11.6,10.3-19.5,22.1-18.9c11.8,0.5,18.9,8.2,19,20.5c0,17.5,0,35,0,52.5
			c0,1.7,0.1,3.5,0.2,5.2c10.9,0,21.1,0,31.4,0c0.2-0.8,0.4-1.2,0.4-1.7c0-22.8,0.4-45.7-0.1-68.5c-0.2-10.2-4.3-19.7-11.9-26.7
			c-13.9-12.9-34.6-14.6-50.9-4.5c-4.2,2.6-8,6.1-12.4,9.6c0-4.7,0-9,0-13.4c-10.2,0-19.9,0-29.7,0
			C149.9,184.5,149.9,219.3,149.9,254.6z M99.1,149.1c0,35.5,0,70.5,0,105.4c10.9,0,21.3,0,31.6,0c0-35.4,0-70.4,0-105.4
			C120,149.1,109.7,149.1,99.1,149.1z M133.4,114c-0.1-10.3-8.5-18.8-18.7-18.7c-10.2,0.1-18.7,8.6-18.7,18.8
			c-0.1,10.3,8.7,19.1,19,18.9C125.3,132.9,133.5,124.4,133.4,114z"/>
	</g>
</g>
</svg>
