<?xml version="1.0" encoding="utf-8"?>
<!-- Generator: Adobe Illustrator 24.0.1, SVG Export Plug-In . SVG Version: 6.00 Build 0)  -->
<svg version="1.1" id="Calque_1" xmlns="http://www.w3.org/2000/svg" xmlns:xlink="http://www.w3.org/1999/xlink" x="0px" y="0px"
	 viewBox="0 0 350 350" style="enable-background:new 0 0 350 350;" xml:space="preserve">
<g>
	<g>
		<path d="M176,307.5c-7.2-11.3-14.2-22-20.9-32.8c-19.4-31.2-39.2-62.3-58-93.9c-23.8-40.2-12.5-91.6,25.1-119
			c51.8-37.7,124.8-12.4,142,49.4c6.7,24.2,4.3,47.7-8.9,69.3c-25.7,41.9-51.8,83.4-77.8,125.1C177.3,306.1,176.9,306.4,176,307.5z
			 M176,176.1c22.7,0,40.1-17.5,40.8-39.7c0.7-22.9-18.7-41.7-40.7-41.6c-20,0-41.4,16.5-40.7,43.3C136,158.3,154.4,176.1,176,176.1
			z"/>
	</g>
</g>
</svg>
