<?xml version="1.0" encoding="utf-8"?>
<!-- Generator: Adobe Illustrator 24.0.1, SVG Export Plug-In . SVG Version: 6.00 Build 0)  -->
<svg version="1.1" id="Calque_1" xmlns="http://www.w3.org/2000/svg" xmlns:xlink="http://www.w3.org/1999/xlink" x="0px" y="0px"
	 viewBox="0 0 350 350" style="enable-background:new 0 0 350 350;" xml:space="preserve">
<style type="text/css">
	.st0{fill:#2c2c2c;}
</style>
<g>
	<g>
		<path class="st0" d="M175.9,264.9c-39.3,0-78.6,0-117.9,0c-2,0-4,0.1-6-0.2c-4.2-0.6-6.8-3.5-7.3-7.7c-0.1-1.2-0.1-2.3-0.1-3.5
			c0-50.8,0-101.6,0-152.4c0-2.1,0-4.4,0.7-6.4C47,89.8,51,87.5,56,86.9c2-0.2,4-0.1,6-0.1c76.1,0,152.2,0,228.4,0c1.3,0,2.7,0,4,0
			c8.6,0.3,13.6,5,14.1,13.7c0.1,1.2,0,2.3,0,3.5c0,49.1,0,98.3,0,147.4c0,0.8,0,1.7,0,2.5c-0.2,7.4-3.7,11-11.1,11.1
			c-19.8,0.1-39.6,0-59.5,0C217.3,264.9,196.6,264.9,175.9,264.9z M73.3,103.8c2.1,2.2,3.3,3.6,4.7,4.9
			c27.2,27.2,54.7,54.2,81.5,81.8c6.3,6.5,12.5,9.7,21.3,8.5c2.4-0.3,4.4-0.7,6.2-2.5c30-30.1,60-60.1,90.1-90.2
			c0.6-0.6,1-1.5,1.7-2.6C210.2,103.8,142.3,103.8,73.3,103.8z M136.9,190.5c-19.7,19.1-38.6,37.5-57.5,55.8
			c6,2.5,189.2,2.3,192.1,1.2c-18.4-18.5-37-37.2-55.9-56.1c-1,0.9-2.2,2-3.3,3.1c-5.7,5.6-11.4,11.2-16.9,17
			c-2.7,2.8-5.9,4.2-9.8,4.2c-6.2-0.1-12.3-0.1-18.5,0c-4.1,0.1-7.3-1.4-10.1-4.4C150.5,204.2,143.8,197.5,136.9,190.5z M291,240.9
			c1.4-6.4,0.9-121.2,0.3-122.8c-20.5,20.2-41.4,40.9-61.8,61.1C249.7,199.5,270.2,220.1,291,240.9z M61.5,239.8
			c20.7-20.5,41.4-41.1,61.1-60.7c-20.2-20.3-40.7-41-61.1-61.4C61.5,158.2,61.5,199.4,61.5,239.8z"/>
	</g>
</g>
</svg>
