<?xml version="1.0" encoding="utf-8"?>
<!-- Generator: Adobe Illustrator 24.0.1, SVG Export Plug-In . SVG Version: 6.00 Build 0)  -->
<svg version="1.1" id="Calque_1" xmlns="http://www.w3.org/2000/svg" xmlns:xlink="http://www.w3.org/1999/xlink" x="0px" y="0px"
	 viewBox="0 0 384 384" style="enable-background:new 0 0 384 384;" xml:space="preserve">
<style type="text/css">
	.st0{fill:#F5F5F5;}
</style>
<g>
	<g>
		<path class="st0" d="M192.3,97.3c37,0,74.1,0,111.1,0c11.1,0,18.7,9.2,16.2,19.6c-1.5,6.4-5.7,10.4-12.1,11.8
			c-1.8,0.4-3.7,0.5-5.6,0.5c-73.1,0-146.2,0-219.3,0c-2.9,0-6.1-0.5-8.7-1.6c-6.9-2.9-10.4-10.2-8.9-17.5c1.4-7.3,7.5-12.5,15-12.8
			c1.2-0.1,2.5,0,3.7,0C119.9,97.3,156.1,97.3,192.3,97.3z"/>
		<path class="st0" d="M192.2,288.9c-36.9,0-73.8,0-110.8,0c-11.2,0-18.8-9.1-16.3-19.5c1.5-6.4,5.6-10.4,12-11.9
			c1.9-0.4,4-0.5,5.9-0.5c73,0,145.9,0,218.9,0c4.9,0,9.5,0.9,13.1,4.5c4.8,4.7,6.3,10.4,4.1,16.8c-2.3,6.5-7.1,10-14,10.7
			c-1.4,0.1-2.7,0.1-4.1,0.1C264.8,288.9,228.5,288.9,192.2,288.9z"/>
		<path class="st0" d="M192.5,177.2c36.8,0,73.6,0,110.4,0c9.5,0,15.8,5.2,17.1,13.9c1.3,8.6-5.2,16.9-13.8,17.8
			c-1.4,0.1-2.7,0.1-4.1,0.1c-73.2,0-146.4,0-219.6,0c-10,0-16.4-5.1-17.7-14.1c-1.2-8.4,5.2-16.7,13.6-17.6
			c1.7-0.2,3.5-0.2,5.2-0.2C119.9,177.2,156.2,177.2,192.5,177.2z"/>
	</g>
</g>
</svg>
