<?xml version="1.0" encoding="utf-8"?>
<!-- Generator: Adobe Illustrator 24.0.1, SVG Export Plug-In . SVG Version: 6.00 Build 0)  -->
<svg version="1.1" id="Calque_1" xmlns="http://www.w3.org/2000/svg" xmlns:xlink="http://www.w3.org/1999/xlink" x="0px" y="0px"
	 viewBox="0 0 669 669" style="enable-background:new 0 0 669 669;" xml:space="preserve">
<style type="text/css">
	.st0{fill:#FFFFFF;}
</style>
<g>
	<g>
		<path class="st0" d="M351,58c3.8,0.3,7.7,0.5,11.5,0.9c13.5,1.5,27.1,2.4,40.4,4.8c22.6,3.9,41.4,14.6,54.6,33.9
			c7.4,10.8,10.8,23,10.8,36c0.1,41.5,0.4,83-0.1,124.5c-0.3,27.7-13,48.6-37.7,61.6c-9.1,4.8-18.9,6.7-29.1,6.7
			c-43.3,0-86.6-0.1-129.8,0.1c-34.2,0.1-59.2,15.9-75.8,45.4c-6.3,11.1-9.3,23.3-9.3,36.1c-0.1,19.1,0,38.3-0.1,57.5
			c0,1.2-0.1,2.3-0.2,3.7c-1.1,0.1-2,0.3-2.9,0.3c-14.3,0-28.7,0-43,0c-24.3-0.1-42.5-11.1-55.5-31.2c-8-12.5-12.8-26.2-15.7-40.6
			c-2.7-13.3-4.9-26.7-7.1-40.1c-0.7-4.1-0.8-8.2-1.2-12.3c0-7.2,0-14.5,0-21.8c0.2-1.9,0.4-3.8,0.6-5.8c1.6-18.4,5-36.6,9.8-54.4
			c4.9-18.2,14.2-33.8,29.2-45.7c15.5-12.3,33.4-17.7,53-17.7c59.2-0.1,118.4-0.1,177.7-0.1c1.3,0,2.6-0.1,4-0.2
			c0-5.6,0-10.8,0-16.5c-44.1,0-88,0-132.1,0c-0.1-1.6-0.3-2.7-0.3-3.8c0-15.1-0.2-30.2,0.1-45.3c0.2-8,0.7-16,1.9-23.9
			c1.7-11.1,6.8-20.8,15.7-28.1c8.8-7.1,19-11.2,29.7-14.2c18.3-5.1,37-7.4,55.9-8.7c4.2-0.3,8.4-0.7,12.6-1
			C329.4,58,340.2,58,351,58z M285.7,124.3c0.1-14.2-10.8-25.3-24.7-25.4c-13.8-0.1-24.8,11-24.9,24.9
			c-0.1,13.9,10.9,25.2,24.6,25.3C274.5,149.2,285.6,138.1,285.7,124.3z"/>
		<path class="st0" d="M485,200.2c1.3-0.1,2.3-0.3,3.3-0.3c14.8,0,29.5-0.1,44.3,0c13,0.1,25.3,2.5,36.1,10.3
			c8.5,6.1,14.7,14.1,19.6,23.1c7.7,14.2,12,29.7,15.1,45.5c2.7,13.6,5.2,27.4,6.6,41.2c2.8,28-0.1,55.5-9.3,82.3
			c-4.7,13.7-9.5,27.2-17.2,39.6c-8.8,14.2-20.8,23.7-37.7,26.4c-3.1,0.5-6.2,0.8-9.3,0.8c-65.5,0.1-131,0-196.4,0
			c-1.3,0-2.7,0-4.4,0c0,5.8,0,11.1,0,17.1c43.9,0,87.8,0,131.9,0c0.2,1.5,0.4,2.6,0.4,3.6c0,15.5-0.1,31,0.1,46.6
			c0.2,19.4-8,34.6-22.8,46.7c-11,9-23.7,14.7-37.2,19.1c-17.3,5.7-35,9.5-53.1,11.1c-16.9,1.6-33.7,1.2-50.4-1.4
			c-18.1-2.8-35.9-7-52.9-14.2c-12.9-5.5-24.6-12.7-34-23.2c-9.1-10.3-14.4-22.2-14.4-36c-0.1-42.9-0.1-85.9,0.1-128.8
			c0.1-16.1,5.6-30.3,15.9-42.5c10.5-12.5,23.7-20.4,39.9-23c3.6-0.6,7.4-0.9,11.1-0.9c42.8-0.1,85.6-0.2,128.3,0
			c25.6,0.2,46.9-9.2,64.1-27.9c14.3-15.6,22.2-34.1,22.3-55.5c0.1-18.6,0-37.1,0.1-55.7C484.8,202.8,484.9,201.7,485,200.2z
			 M385.4,544.8c-0.1,14.2,10.9,25.5,24.6,25.5c13.8,0.1,25.1-11.2,25.1-25.1c0.1-14-11-25.5-24.7-25.5
			C396.6,519.7,385.4,530.8,385.4,544.8z"/>
	</g>
</g>
</svg>
