<?xml version="1.0" encoding="utf-8"?>
<!-- Generator: Adobe Illustrator 24.0.1, SVG Export Plug-In . SVG Version: 6.00 Build 0)  -->
<svg version="1.1" id="Calque_1" xmlns="http://www.w3.org/2000/svg" xmlns:xlink="http://www.w3.org/1999/xlink" x="0px" y="0px"
	 viewBox="0 0 350 350" style="enable-background:new 0 0 350 350;" xml:space="preserve">
<style type="text/css">
	.st0{fill:#2AA4FE;}
</style>
<g>
	<g>
		<path class="st0" d="M102.5,34.1c4.6-0.7,8.5,1.4,11.7,4.4c4.2,4,8.4,8.1,11.7,12.9c5.6,7.9,10.6,16.1,15.5,24.5
			c3.6,6.2,6.2,12.9,6.9,20.2c0.9,8.5-1.7,15.9-7.9,21.7c-5.1,4.7-10.4,9.3-16,13.5c-11.9,8.8-14.9,18.4-9.7,32.2
			c3.7,9.9,9.2,18.9,15.6,27.2c11.2,14.5,22.9,28.7,37.6,39.9c5.5,4.2,11.6,7.7,17.9,10.7c9.2,4.4,17.8,2.7,25.2-4.5
			c4.3-4.2,8.6-8.3,13.1-12.3c13.8-12.2,23.6-13.7,39.3-4.3c15,9.1,28.4,20.4,39.2,34.4c7,9.1,6.4,18.4-2,26.4
			c-8.6,8.1-16.9,16.5-27.2,22.5c-12,7-24.9,11.1-38.7,11.9c-24.9,1.6-47.2-6.3-68.1-18.9c-25-15-45.6-35-64.5-56.9
			c-15.9-18.3-30.2-37.7-41-59.4C51.1,160,44.2,139,44.9,116C45.6,89.7,56,68,75.5,50.6c4.6-4.1,9.4-7.9,14.2-11.8
			C93.3,35.8,97.3,33.5,102.5,34.1z"/>
	</g>
</g>
</svg>
