<?xml version="1.0" encoding="utf-8"?>
<!-- Generator: Adobe Illustrator 24.0.1, SVG Export Plug-In . SVG Version: 6.00 Build 0)  -->
<svg version="1.1" id="Calque_1" xmlns="http://www.w3.org/2000/svg" xmlns:xlink="http://www.w3.org/1999/xlink" x="0px" y="0px"
	 viewBox="0 0 458 350" style="enable-background:new 0 0 458 350;" xml:space="preserve">
<style type="text/css">
	.st0{fill:#FFFFFF;}
</style>
<g>
	<g>
		<path class="st0" d="M228.8,286.9C151.6,284.8,94.6,249.1,56,182.8c-3.1-5.3-3.1-10.2,0-15.5c31.4-54.7,76.9-90.8,139.8-101.2
			c88.4-14.7,163.6,27,205.3,98.8c3.9,6.7,4.5,12.6,0.4,19.5c-29.1,49.5-70.2,83.2-126.5,97.1C259.8,285.3,244.5,286.9,228.8,286.9z
			 M231.5,263c5.3-0.4,13.3-0.7,21.2-1.8c55-7.7,95.2-37.6,124-84c0.6-1,0.6-3.1,0-4.2c-2.6-4.4-5.3-8.8-8.3-12.9
			c-41.5-55.7-96.7-80.4-165.6-70.7c-53.7,7.5-92.9,37.9-121.3,83.3c-1.1,1.7-1.2,3,0,4.7c2.8,4.1,5.3,8.4,8.3,12.5
			C124.2,236.7,170.1,262,231.5,263z"/>
		<path class="st0" d="M229,242.5c-22.6-0.6-41.8-8.8-56.1-26.7c-21.1-26.2-19-62.9,4.6-86.8c26.6-27,71-28.6,99.5-3.7
			c38,33.2,27.1,93.2-20.2,111.9C247.8,240.7,238.6,242.5,229,242.5z M229.3,218.8c4-0.7,8.2-1,12.1-2c26.3-6.6,40.5-34.8,29.7-58.8
			c-8.7-19.4-31.1-30.2-52.2-25.2c-20.5,4.8-34.9,21.6-35.3,41C183,198.4,203.5,218.5,229.3,218.8z"/>
	</g>
</g>
</svg>
