<?xml version="1.0" encoding="utf-8"?>
<!-- Generator: Adobe Illustrator 24.0.1, SVG Export Plug-In . SVG Version: 6.00 Build 0)  -->
<svg version="1.1" id="Calque_1" xmlns="http://www.w3.org/2000/svg" xmlns:xlink="http://www.w3.org/1999/xlink" x="0px" y="0px"
	 viewBox="0 0 288 288" style="enable-background:new 0 0 288 288;" xml:space="preserve">
<g>
	<g>
		<path d="M175.2,143.6c1.1,0.9,2.6,2.1,4.2,3.1c13,8.6,21.9,20.1,25.7,35.5c4.3,17.5,0.7,33.3-9.6,47.6
			c-9.5,13.4-22.8,21.3-38.7,24.8c-4,0.9-8.2,1.1-12.4,1.2c-20,0.1-40,0-60,0c-6.2,0-6.5-0.3-6.5-6.5c0-57.2,0-114.3,0-171.5
			c0-5.9,0-5.9,5.7-5.9c23,0,46,0,69,0c5.2,0,5.3,0.1,5.3,5.3c-0.1,12.5,1.7,10.6-10.4,10.6c-16.3,0.1-32.7,0-49,0
			c-5.2,0-5.2,0-5.2,5.1c0,43.1,0,86.3-0.1,129.4c0,4.3,0,8.7-0.2,13c-0.1,2.4,0.4,3.6,3.2,3.6c17.8-0.1,35.7,1,53.5-0.3
			c20.2-1.5,36.9-16.3,40.3-37.4c3.4-21.4-12.3-39.5-26.5-44.4c-4.3-1.5-8.7-2.7-13.1-4c-0.8-0.2-1.8-0.1-2.4-0.5
			c-3.9-3.5-1.5-8.1-2-12.3c-0.2-2.4,1.4-3.6,3.9-4.3c7.8-2.3,15.2-5.4,21.3-11.1c8.1-7.4,12.9-16.5,13.7-27.5
			c0.9-13.3-3.4-24.9-13.2-33.9c-8-7.4-17.5-12.3-28.7-12.5c-27.8-0.4-55.6-0.6-83.3-1.1c-4.5-0.1-3.7,2.4-3.7,5
			c0,59.3,0,118.6,0,178c0,5.8,0,11.7,0,17.5c-0.1,4.1-1.3,5.4-5.3,5.4C38.9,256,40,255.6,40,245.7c0-68,0.1-136,0-204
			c0-7,1.1-7.8,8-7.8c30.2,0.1,60.3,0,90.5,0c17.7,0,33.1,6,45.5,18.6c10.9,11.1,17.1,24.4,17.3,40.6c0.1,12.6-3.2,23.8-10.4,33.7
			C186.4,133,180.6,138,175.2,143.6z"/>
		<path d="M245.4,92c-0.2,17.7-4.7,34.2-14,49.2c-1,1.6-1,2.6,0.2,4.2c7,9.1,12.4,19,15.3,30.1c7,26.3,2.4,50.6-13,72.9
			c-0.8,1.1-1.5,2.2-2.3,3.3c-2,2.9-4.6,4.6-8.4,4.2c-2.3-0.3-4.7-0.2-7,0c-2.2,0.1-4.4-0.4-4.9-2.5c-0.3-1.4,0.6-3.6,1.7-4.8
			c7.2-7.8,12.7-16.5,16.4-26.4c8.6-23,4.7-44.4-9-64.2c-2.3-3.2-5.2-6-7.8-9c-3.3-3.7-3.4-4.7-0.1-9c7.1-9.5,11.8-20,14.6-31.6
			c3.6-14.6,2.3-29-2.8-42.9c-2.9-8-7.4-15.4-11.2-23c-0.7-1.3-1.7-2.5-2-3.9c-0.7-2.9,0.5-4.3,3.5-4.6c1.3-0.1,2.7,0.2,4-0.1
			c6.9-1.3,10.5,2.2,13.5,8c5.3,10.3,9.4,20.9,11.6,32.2C244.8,80,244.9,86,245.4,92z"/>
	</g>
</g>
</svg>
