<?xml version="1.0" encoding="UTF-8"?>
<svg id="Calque_1" xmlns="http://www.w3.org/2000/svg" version="1.1" viewBox="0 0 1750 350">
  <!-- Generator: Adobe Illustrator 30.1.0, SVG Export Plug-In . SVG Version: 2.1.1 Build 136)  -->
  <defs>
    <style>
      .st0, .st1 {
        fill: #fff;
      }

      .st2, .st1 {
        display: none;
      }

      .st1 {
        fill-rule: evenodd;
      }
    </style>
  </defs>
  <path class="st1" d="M1575.2,45.79c-73.2,0-132.5,59.3-132.5,132.5,0,58.6,37.9,108.2,90.6,125.7,6.6,1.2,9.1-2.8,9.1-6.3,0-3.1-.2-13.6-.2-24.7-33.3,6.1-41.9-8.1-44.6-15.6-1.5-3.8-8-15.6-13.6-18.7-4.6-2.5-11.3-8.6-.2-8.8,10.4-.2,17.9,9.6,20.4,13.6,11.9,20,31,14.4,38.6,10.9,1.2-8.6,4.6-14.4,8.4-17.7-29.5-3.3-60.3-14.7-60.3-65.4,0-14.4,5.1-26.3,13.6-35.6-1.3-3.3-6-16.9,1.3-35.1,0,0,11.1-3.5,36.4,13.6,10.6-3,21.9-4.5,33.1-4.5s22.5,1.5,33.1,4.5c25.3-17.2,36.4-13.6,36.4-13.6,7.3,18.2,2.7,31.8,1.3,35.1,8.4,9.3,13.6,21,13.6,35.6,0,50.9-31,62.1-60.5,65.4,4.8,4.1,8.9,12.1,8.9,24.5,0,17.7-.2,32-.2,36.4,0,3.5,2.5,7.6,9.1,6.3,52.3-17.6,90.3-67.3,90.3-125.7.4-73.1-58.9-132.4-132.1-132.4Z"/>
  <g class="st2">
    <path class="st0" d="M101.37,34.32c4.6-.7,8.5,1.4,11.7,4.4,4.2,4,8.4,8.1,11.7,12.9,5.6,7.9,10.6,16.1,15.5,24.5,3.6,6.2,6.2,12.9,6.9,20.2.9,8.5-1.7,15.9-7.9,21.7-5.1,4.7-10.4,9.3-16,13.5-11.9,8.8-14.9,18.4-9.7,32.2,3.7,9.9,9.2,18.9,15.6,27.2,11.2,14.5,22.9,28.7,37.6,39.9,5.5,4.2,11.6,7.7,17.9,10.7,9.2,4.4,17.8,2.7,25.2-4.5,4.3-4.2,8.6-8.3,13.1-12.3,13.8-12.2,23.6-13.7,39.3-4.3,15,9.1,28.4,20.4,39.2,34.4,7,9.1,6.4,18.4-2,26.4-8.6,8.1-16.9,16.5-27.2,22.5-12,7-24.9,11.1-38.7,11.9-24.9,1.6-47.2-6.3-68.1-18.9-25-15-45.6-35-64.5-56.9-15.9-18.3-30.2-37.7-41-59.4-10-20.2-16.9-41.2-16.2-64.2.7-26.3,11.1-48,30.6-65.4,4.6-4.1,9.4-7.9,14.2-11.8,3.6-3,7.6-5.3,12.8-4.7Z"/>
  </g>
  <g class="st2">
    <path class="st0" d="M524.33,263.99h-117.9c-2,0-4,.1-6-.2-4.2-.6-6.8-3.5-7.3-7.7-.1-1.2-.1-2.3-.1-3.5V100.19c0-2.1,0-4.4.7-6.4,1.7-4.9,5.7-7.2,10.7-7.8,2-.2,4-.1,6-.1h232.4c8.6.3,13.6,5,14.1,13.7.1,1.2,0,2.3,0,3.5v149.9c-.2,7.4-3.7,11-11.1,11.1-19.8.1-39.6,0-59.5,0-20.6-.1-41.3-.1-62-.1ZM421.73,102.89c2.1,2.2,3.3,3.6,4.7,4.9,27.2,27.2,54.7,54.2,81.5,81.8,6.3,6.5,12.5,9.7,21.3,8.5,2.4-.3,4.4-.7,6.2-2.5,30-30.1,60-60.1,90.1-90.2.6-.6,1-1.5,1.7-2.6-68.6.1-136.5.1-205.5.1ZM485.33,189.59c-19.7,19.1-38.6,37.5-57.5,55.8,6,2.5,189.2,2.3,192.1,1.2-18.4-18.5-37-37.2-55.9-56.1-1,.9-2.2,2-3.3,3.1-5.7,5.6-11.4,11.2-16.9,17-2.7,2.8-5.9,4.2-9.8,4.2-6.2-.1-12.3-.1-18.5,0-4.1.1-7.3-1.4-10.1-4.4-6.5-7.1-13.2-13.8-20.1-20.8ZM639.43,239.99c1.4-6.4.9-121.2.3-122.8-20.5,20.2-41.4,40.9-61.8,61.1,20.2,20.3,40.7,40.9,61.5,61.7ZM409.93,238.89c20.7-20.5,41.4-41.1,61.1-60.7-20.2-20.3-40.7-41-61.1-61.4v122.1Z"/>
  </g>
  <g class="st2">
    <path class="st0" d="M1224.09,42.6c26.5,0,53-.4,79.5.1,21.1.4,37.2,10,46.9,29.3,1.4,2.8,2.7,5.8,3.3,8.8,1.4,7.3,3.3,14.6,3.4,22,.3,47.8.6,95.7-.1,143.5-.2,17.4-4.2,34.3-18.3,46.8-8.9,7.9-19.4,12.5-31.1,13.1-16.5.8-32.9,1.1-49.4,1.2-34.3.2-68.7.2-103,0-11.3-.1-22.7-.7-33.1-5.9-18.8-9.3-29.4-24.5-29.5-45.5-.4-53.5.2-107-.2-160.5-.4-27,19.7-52.2,51.6-52.8,26.7-.4,53.3-.1,80-.1ZM1198.29,254.1h31.7v-6.7c.1-17.5-.2-35,.4-52.5.4-11.6,10.3-19.5,22.1-18.9,11.8.5,18.9,8.2,19,20.5v52.5c0,1.7.1,3.5.2,5.2h31.4c.2-.8.4-1.2.4-1.7,0-22.8.4-45.7-.1-68.5-.2-10.2-4.3-19.7-11.9-26.7-13.9-12.9-34.6-14.6-50.9-4.5-4.2,2.6-8,6.1-12.4,9.6v-13.4h-29.7c-.2,35-.2,69.8-.2,105.1ZM1147.49,148.6v105.4h31.6v-105.4h-31.6ZM1181.79,113.5c-.1-10.3-8.5-18.8-18.7-18.7-10.2.1-18.7,8.6-18.7,18.8-.1,10.3,8.7,19.1,19,18.9,10.3-.1,18.5-8.6,18.4-19Z"/>
  </g>
  <path class="st0" d="M874.78,306.7c-7.2-11.3-14.2-22-20.9-32.8-19.4-31.2-39.2-62.3-58-93.9-23.8-40.2-12.5-91.6,25.1-119,51.8-37.7,124.8-12.4,142,49.4,6.7,24.2,4.3,47.7-8.9,69.3-25.7,41.9-51.8,83.4-77.8,125.1-.2.5-.6.8-1.5,1.9ZM874.78,175.3c22.7,0,40.1-17.5,40.8-39.7.7-22.9-18.7-41.7-40.7-41.6-20,0-41.4,16.5-40.7,43.3.6,20.2,19,38,40.6,38Z"/>
</svg>